<svg xmlns="http://www.w3.org/2000/svg" width="46.563" height="66.562" viewBox="0.219 0 46.563 66.562"><path fill="#4854ED" d="M40.063 6.719c4.375 4.375 6.613 9.897 6.719 16.563-.938 9.48-4.819 18.882-11.641 28.203-6.825 9.323-10.703 14.347-11.641 15.077-.938-.73-4.819-5.754-11.641-15.078C5.036 42.164 1.156 32.762.219 23.281c.103-6.665 2.344-12.188 6.719-16.563S16.832.105 23.5 0c6.665.105 12.188 2.344 16.563 6.719zm-10.625 22.5c1.563-1.563 2.344-3.54 2.344-5.938 0-2.395-.781-4.375-2.344-5.938S25.895 15 23.5 15c-2.397 0-4.375.781-5.938 2.344s-2.344 3.542-2.344 5.938c0 2.397.781 4.375 2.344 5.938s3.54 2.344 5.938 2.344c2.395-.001 4.375-.783 5.938-2.345z"/></svg>