<svg width="29" height="36" viewBox="0 0 29 36" fill="none" xmlns="http://www.w3.org/2000/svg">
<path d="M1.56522 0C0.760226 0 0 0.760226 0 1.56522V34.4348C0 35.195 0.804991 36 1.56522 36H26.6087C27.3689 36 28.1739 35.195 28.1739 34.4348V10.1739L18 0H1.56522Z" fill="#2166C3"/>
<path d="M9.86519 25.2609L7.2002 14.4004H9.3262L10.3742 19.3315C10.6437 20.6626 10.9132 22.0239 11.0929 23.113H11.1228C11.3025 21.9634 11.6019 20.6928 11.9014 19.3012L13.0692 14.4004H15.1652L16.2432 19.392C16.5127 20.6928 16.7523 21.8726 16.902 23.0525H16.9319C17.1116 21.8424 17.3811 20.6323 17.6805 19.3012L18.8184 14.4004H20.8546L17.9201 25.2609H15.7641L14.6263 20.1483C14.3568 18.9382 14.1472 17.9096 13.9974 16.7298H13.9675C13.7878 17.8794 13.5782 18.9382 13.2488 20.1785L11.9912 25.2911H9.86519V25.2609Z" fill="white"/>
<path d="M17.6177 0L27.7916 10.1739H19.1829C18.4226 10.1739 17.6177 9.36892 17.6177 8.60869V0Z" fill="#2C7BD5"/>
</svg>
