<svg width="260" height="48" viewBox="0 0 260 48" fill="none" xmlns="http://www.w3.org/2000/svg">
<g clip-path="url(#clip0_5090_38166)">
<path d="M203.785 43.0001C203.658 43.0423 203.447 43.0634 203.152 43.0634C202.477 43.0634 201.949 42.7258 201.57 42.0508C201.19 41.3757 201 40.4474 201 39.266C201 38.2956 201.126 37.1775 201.38 35.9117C201.844 34.6881 202.076 33.802 202.076 33.2535C202.202 32.4519 202.624 31.0173 203.342 28.9498C204.101 26.8402 204.586 25.5744 204.797 25.1525C204.966 25.1525 205.114 25.0259 205.24 24.7727C205.367 24.4774 205.43 24.1609 205.43 23.8234C205.43 23.4437 205.493 23.0639 205.62 22.6842C205.789 22.2622 205.958 21.9669 206.126 21.7981C206.126 21.6715 206.169 21.4395 206.253 21.1019C206.38 20.7644 206.443 20.5323 206.443 20.4058C206.443 20.3214 206.485 20.1737 206.569 19.9627C206.696 19.7096 206.759 19.5197 206.759 19.3931C207.434 18.0851 208.616 15.1527 210.303 10.5959C211.991 5.9969 212.835 3.4442 212.835 2.9379C212.835 2.2628 213.173 1.9252 213.848 1.9252C214.059 1.7143 214.396 1.6088 214.86 1.6088L215.873 2.6214C216.168 2.9168 216.358 3.2332 216.443 3.5708C216.527 3.8661 216.569 4.3302 216.569 4.9631C216.569 5.596 216.485 6.1445 216.316 6.6086C216.147 7.0728 215.725 8.0221 215.05 9.4567C214.924 9.752 214.755 10.1107 214.544 10.5326C214.333 10.9123 214.101 11.3976 213.848 11.9883C213.763 12.1992 213.426 12.9587 212.835 14.2667C212.413 15.1105 212.202 15.5958 212.202 15.7223C212.202 15.8489 212.118 16.1232 211.949 16.5451C211.78 16.9248 211.633 17.3257 211.506 17.7476C211.168 18.4227 210.62 19.6252 209.86 21.3551C209.143 23.0428 208.785 23.9711 208.785 24.1398C208.785 24.604 208.679 24.9415 208.468 25.1525C208.341 25.1525 208.257 25.258 208.215 25.4689C208.173 25.6377 208.152 25.7643 208.152 25.8487C208.152 26.2706 207.814 27.3887 207.139 29.203L206.569 31.0384C205.768 33.7809 205.198 35.7851 204.861 37.0509C204.565 38.3167 204.418 39.3926 204.418 40.2787C204.418 41.3335 204.375 42.0086 204.291 42.3039C204.249 42.5993 204.08 42.8313 203.785 43.0001ZM219.414 15.2793C219.118 14.984 218.865 14.4776 218.654 13.7604C218.443 13.0431 218.443 12.6844 218.654 12.6844C218.992 12.6422 219.371 12.2836 219.793 11.6085C220.258 10.8912 220.468 10.3005 220.426 9.8364C220.426 9.6676 220.49 9.52 220.616 9.3934C220.743 9.2246 220.89 9.1191 221.059 9.0769C221.397 8.866 221.692 8.7605 221.945 8.7605C222.663 8.7605 223.317 9.2668 223.907 10.2794C224.16 10.8279 224.287 11.3132 224.287 11.7351C224.287 12.1148 224.181 12.5157 223.971 12.9376C223.76 13.3173 223.38 13.8237 222.831 14.4565C222.114 15.427 221.439 15.9122 220.806 15.9122C220.384 15.9122 219.92 15.7012 219.414 15.2793ZM213.275 40.9748C212.684 40.3841 212.389 39.5403 212.389 38.4433C212.389 37.8526 212.494 37.3462 212.705 36.9243C212.705 36.7133 212.747 36.4602 212.832 36.1648C212.916 35.8695 212.958 35.6796 212.958 35.5952C212.916 35.3421 213.085 34.6459 213.464 33.5067C214.224 31.819 215.237 28.8444 216.502 24.5829C216.502 24.3719 216.587 24.2031 216.756 24.0765C216.924 23.9078 217.177 23.8023 217.515 23.7601C217.853 23.6757 218.085 23.6335 218.211 23.6335C218.464 23.6335 218.675 23.739 218.844 23.95C219.055 24.1187 219.329 24.4563 219.667 24.9626C219.92 25.2158 220.047 25.5955 220.047 26.1018C220.047 26.9035 219.772 27.8739 219.224 29.0131C218.675 30.2367 218.317 31.2915 218.148 32.1776C217.642 33.3168 217.241 34.3716 216.945 35.3421C216.861 35.5952 216.734 36.1015 216.566 36.861C216.397 37.6205 216.165 38.2323 215.869 38.6964C215.616 39.8778 215.384 40.7006 215.173 41.1647C214.962 41.6288 214.73 41.8609 214.477 41.8609C214.182 41.8609 213.781 41.5655 213.275 40.9748ZM227.674 47.7468C226.831 47.8312 226.113 47.2194 225.523 45.9114C224.932 44.6456 224.637 43.0001 224.637 40.9748C224.594 40.6373 224.573 40.1099 224.573 39.3926C224.573 36.0594 225.438 31.3759 227.168 25.3423C227.759 23.2327 228.877 20.2792 230.522 16.4818C232.168 12.6844 233.16 10.6381 233.497 10.3427H233.624C233.792 10.3427 233.877 10.1529 233.877 9.7731C233.877 9.6887 234.046 9.3723 234.383 8.8238C234.721 8.2331 235.037 7.6424 235.332 7.0517C236.176 5.8281 237.231 4.6678 238.497 3.5708C239.763 2.4737 240.902 1.7143 241.915 1.2923C242.547 1.0392 243.18 0.912598 243.813 0.912598C245.037 0.912598 246.049 1.3345 246.851 2.1784C247.695 2.9801 248.117 3.9927 248.117 5.2163C248.117 5.8914 247.969 6.5454 247.674 7.1783C247.336 8.5284 246.45 10.2583 245.016 12.368C244.509 12.6212 244.088 12.7477 243.75 12.7477C243.539 12.7477 243.391 12.7055 243.307 12.6212C243.223 12.5368 243.244 12.4102 243.37 12.2414C243.37 12.0726 243.412 11.8406 243.497 11.5452C243.623 11.2499 243.708 10.9967 243.75 10.7858C243.75 10.7014 243.834 10.4482 244.003 10.0263C244.214 9.5622 244.32 9.1402 244.32 8.7605C244.699 7.2837 244.889 6.2289 244.889 5.596C244.889 4.9209 244.678 4.5834 244.256 4.5834C243.877 4.5412 243.307 4.7522 242.547 5.2163C241.788 5.6382 241.408 5.9969 241.408 6.2922V6.5454C241.197 6.5032 240.438 7.2837 239.13 8.8871C237.864 10.4482 236.873 11.8406 236.155 13.0642C235.016 15.427 233.94 17.8953 232.927 20.469L232.421 21.988L233.434 22.1146C234.024 22.1568 235.248 22.0091 237.105 21.6715C237.822 21.545 238.434 21.4817 238.94 21.4817C239.657 21.4817 240.206 21.6083 240.585 21.8614C240.965 22.0724 241.261 22.4521 241.472 23.0006C241.598 23.296 241.661 23.5702 241.661 23.8234C241.661 24.4563 241.071 24.9204 239.889 25.2158C238.75 25.5111 236.767 25.7221 233.94 25.8487C233.56 25.8065 233.075 25.7854 232.484 25.7854C231.809 25.7854 231.387 25.8697 231.219 26.0385C230.965 26.1651 230.565 27.0722 230.016 28.76C229.51 30.4477 229.13 32.0299 228.877 33.5067C228.328 35.7007 228.054 38.0213 228.054 40.4685C228.054 41.9031 228.16 43.0845 228.371 44.0127C228.539 44.6456 228.624 45.2785 228.624 45.9114C228.624 46.8819 228.307 47.4937 227.674 47.7468ZM248.877 43.19C247.063 43.19 245.565 42.5149 244.384 41.1647C243.202 39.8145 242.612 38.1268 242.612 36.1015C242.612 34.0763 243.055 31.8612 243.941 29.4562C244.869 27.009 246.05 24.8149 247.485 22.874C248.92 20.9332 250.375 19.6252 251.852 18.9501C252.696 18.486 253.645 18.2539 254.7 18.2539C255.502 18.2539 256.409 18.486 257.421 18.9501C258.139 19.2454 258.687 19.6041 259.067 20.026C259.447 20.4479 259.784 21.1019 260.08 21.988C260.206 22.7475 260.27 23.2749 260.27 23.5702C260.27 23.8234 260.164 24.3719 259.953 25.2158C259.447 26.7769 258.772 28.106 257.928 29.203C257.126 30.2578 256.071 31.165 254.763 31.9244C254.088 32.3464 253.244 32.5573 252.232 32.5573C251.346 32.5573 250.502 32.4097 249.7 32.1143C248.941 31.7768 248.35 31.2915 247.928 30.6587L247.485 30.1523L247.295 30.6587C246.409 32.9371 245.966 34.878 245.966 36.4813C245.966 37.5783 246.177 38.4644 246.599 39.1394C246.894 39.6036 247.612 39.8356 248.751 39.8356C249.595 39.8356 250.206 39.7512 250.586 39.5825C251.219 39.3715 251.768 39.1183 252.232 38.823C252.738 38.4855 253.223 38.1479 253.687 37.8104L253.941 37.6838H253.877C254.384 37.4306 254.806 37.1986 255.143 36.9876C255.481 36.7766 255.713 36.629 255.839 36.5446C255.924 36.5446 256.008 36.5235 256.092 36.4813C256.177 36.4391 256.261 36.3547 256.346 36.2281C256.725 36.0594 257.168 36.1226 257.675 36.418C258.181 36.7133 258.434 37.0931 258.434 37.5572C258.35 37.8947 257.97 38.4433 257.295 39.2027C256.62 39.9622 256.113 40.363 255.776 40.4052C255.734 40.4052 255.586 40.4685 255.333 40.5951C255.08 40.7217 254.911 40.8272 254.827 40.9115H254.89C254.51 41.4179 254.13 41.671 253.751 41.671H253.244C253.076 42.0086 252.506 42.3461 251.536 42.6837C250.607 43.0212 249.721 43.19 248.877 43.19ZM251.725 29.2663C252.991 29.2663 254.152 28.549 255.206 27.1144C256.219 25.7643 256.725 24.4141 256.725 23.0639C256.725 22.3466 256.578 21.8403 256.282 21.545C256.029 21.4184 255.797 21.3551 255.586 21.3551C255.375 21.3551 255.016 21.4184 254.51 21.545C253.962 21.6715 253.118 22.2622 251.979 23.3171C250.839 24.3297 249.996 25.2369 249.447 26.0385L248.624 27.3676C248.962 27.241 249.278 27.1777 249.574 27.1777C249.911 27.1355 250.101 27.1566 250.143 27.241C250.143 27.8317 250.291 28.3169 250.586 28.6967C250.882 29.0764 251.261 29.2663 251.725 29.2663Z" fill="#225FB0"/>
<path d="M19.8265 23.5225C17.9591 22.3515 15.7944 21.742 13.5904 21.7665C12.2253 21.7579 10.8719 22.0188 9.60777 22.5343C8.39502 23.0275 7.28452 23.7418 6.33286 24.6408C5.40918 25.5073 4.65715 26.5402 4.11619 27.6854L4.1863 24.2769V13H0V32.743C0 42.2072 5.41147 47.9992 12.9194 47.9992H13.6372C15.8254 48.0192 17.9735 47.4109 19.8265 46.2466C21.691 45.0776 23.2108 43.4334 24.2297 41.4828C25.288 39.4414 25.8404 37.1756 25.8404 34.8762C25.8404 32.5768 25.288 30.311 24.2297 28.2696C23.2074 26.3258 21.6881 24.6878 19.8265 23.5225ZM20.4941 39.6467C19.7439 41.0041 18.6428 42.1352 17.306 42.9216C15.9746 43.7066 14.4549 44.1151 12.9094 44.1034C11.3678 44.1115 9.85448 43.6895 8.5395 42.8849C7.20056 42.0722 6.0997 40.9207 5.34804 39.5465C4.57665 38.1131 4.17285 36.5107 4.17285 34.8829C4.17285 33.255 4.57665 31.6526 5.34804 30.2192C6.09732 28.8466 7.19451 27.6953 8.52947 26.8808C9.85085 26.0672 11.3744 25.6415 12.9261 25.6523C14.4806 25.6382 16.0093 26.0504 17.3461 26.8441C18.6803 27.6364 19.7778 28.7719 20.5242 30.1324C21.296 31.5969 21.6994 33.2274 21.6994 34.8829C21.6994 36.5383 21.296 38.1688 20.5242 39.6333L20.4941 39.6467Z" fill="#1D1E1E"/>
<path d="M48.9589 23.4952C47.0737 22.3398 44.9005 21.7403 42.6895 21.7659C40.4262 21.7401 38.2015 22.3521 36.2699 23.5319C34.3592 24.6957 32.7887 26.3422 31.7164 28.3057C30.621 30.3313 30.0474 32.5978 30.0474 34.9006C30.0474 37.2034 30.621 39.47 31.7164 41.4955C32.7899 43.452 34.3606 45.0906 36.2699 46.246C38.2045 47.4174 40.4281 48.0244 42.6895 47.9987C44.447 48.0113 46.1867 47.6458 47.7905 46.927C49.3281 46.2468 50.703 45.2464 51.8232 43.9926C52.8999 42.794 53.7061 41.3776 54.1868 39.8397H49.483C49.1506 40.7196 48.6312 41.5169 47.9608 42.1766C47.2969 42.8212 46.499 43.3113 45.6239 43.6121C44.6479 43.9418 43.6228 44.1032 42.5927 44.0894C41.1281 44.0931 39.691 43.6922 38.4398 42.931C37.1286 42.1407 36.0621 41.0025 35.3585 39.6428C34.7571 38.5029 34.3894 37.2544 34.2769 35.9706H54.8912C54.9078 35.58 54.9245 35.2528 54.9412 34.9691C54.9579 34.6853 54.9646 34.4616 54.9646 34.2513C54.9763 32.0878 54.4294 29.9578 53.3767 28.0676C52.324 26.1774 50.8011 24.591 48.9556 23.4618L48.9589 23.4952ZM37.8589 32.2884H34.4671C34.6461 31.4478 34.9499 30.6387 35.3685 29.8881C36.0866 28.5866 37.1537 27.5114 38.4498 26.7834C39.7223 26.0715 41.1579 25.7022 42.6161 25.7119C43.964 25.7047 45.2948 26.0134 46.5019 26.6132C47.6605 27.1737 48.667 28.005 49.4363 29.0368C50.1531 29.9794 50.5841 31.108 50.6782 32.2884H37.8589Z" fill="#1D1E1E"/>
<path d="M75.5785 34.2339C74.1766 33.6942 72.7221 33.3026 71.2387 33.0654L70.8347 33.0053C70.6979 32.9786 70.5643 32.9586 70.4341 32.9419C69.1871 32.7568 67.9585 32.4642 66.762 32.0673C66.0607 31.8528 65.4405 31.4316 64.9826 30.8588C64.6095 30.2842 64.4262 29.6069 64.4585 28.9225C64.4515 28.2643 64.6333 27.6178 64.9826 27.0597C65.3682 26.4644 65.9243 25.999 66.5783 25.7244C67.4103 25.3757 68.3073 25.2094 69.209 25.237C70.1774 25.2148 71.141 25.3803 72.0466 25.7244C72.7867 25.9994 73.433 26.48 73.9094 27.1098C74.3484 27.7156 74.6023 28.4357 74.6405 29.1829H78.7566C78.7741 27.8111 78.3607 26.4684 77.5749 25.3438C76.7255 24.1573 75.561 23.2322 74.2131 22.6732C72.6296 22.0061 70.9237 21.6785 69.2056 21.7117C67.5262 21.6633 65.8573 21.9918 64.3216 22.6732C63.0872 23.224 62.0422 24.1262 61.3171 25.2671C60.6408 26.3918 60.2938 27.6838 60.3156 28.996C60.3156 30.5672 60.7006 31.8581 61.4707 32.8685C62.2599 33.8939 63.3103 34.6884 64.5119 35.1686C65.9605 35.7422 67.4741 36.1357 69.0187 36.3403C70.2049 36.5242 71.3763 36.793 72.5239 37.1449C73.2951 37.3696 73.9953 37.7893 74.557 38.3634C75.0676 38.9517 75.3297 39.7154 75.2881 40.4933C75.305 41.2727 75.071 42.0369 74.6204 42.6732C74.129 43.3208 73.4597 43.8115 72.6942 44.0853C71.6952 44.4452 70.6377 44.6151 69.5762 44.5861C68.4115 44.6122 67.2544 44.3914 66.1811 43.9384C65.3068 43.5723 64.5552 42.9643 64.0145 42.1858C63.5181 41.4459 63.2436 40.5795 63.2233 39.6887L59.1706 39.6653C59.1671 41.1143 59.577 42.5341 60.3523 43.7581C61.2157 45.0931 62.439 46.1567 63.881 46.8261C65.6566 47.6499 67.5995 48.0499 69.5561 47.9945C71.3445 48.0307 73.1241 47.7341 74.804 47.1199C76.1969 46.6108 77.4106 45.7057 78.2959 44.516C79.156 43.2779 79.596 41.7965 79.5512 40.2896C79.5512 38.685 79.1773 37.3941 78.4295 36.4171C77.6948 35.4442 76.7093 34.6895 75.5785 34.2339Z" fill="#1D1E1E"/>
<path d="M93.4853 15.7529L89.2956 15.7763V23.1574H83.7673V26.8296H89.2823V38.7909C89.2823 41.2078 89.6517 43.0995 90.3906 44.466C91.1295 45.8325 92.0665 46.7617 93.2015 47.2536C94.4356 47.7693 95.7634 48.0228 97.1007 47.998H101.681V44.4427H97.942C97.1695 44.4604 96.4018 44.316 95.6886 44.0187C94.9841 43.6731 94.4238 43.0904 94.1062 42.3729C93.6923 41.5606 93.4853 40.4322 93.4853 38.9878V26.8329H101.694V23.1607H93.4853V15.7529Z" fill="#1D1E1E"/>
<path d="M114.47 26.8206C115.728 26.0791 117.162 25.6883 118.623 25.6889C120.247 25.6635 121.844 26.1025 123.226 26.9542C124.582 27.8117 125.624 29.0846 126.198 30.583H130.507C130.039 28.8968 129.207 27.3333 128.071 26.0019C126.935 24.6704 125.522 23.6032 123.931 22.8747C122.255 22.1084 120.432 21.722 118.589 21.743C116.323 21.7183 114.095 22.3302 112.16 23.509C110.241 24.6718 108.662 26.3179 107.58 28.2828C106.478 30.3039 105.9 32.5691 105.9 34.8711C105.9 37.173 106.478 39.4382 107.58 41.4593C108.661 43.4248 110.241 45.0712 112.16 46.2331C114.095 47.4119 116.323 48.0238 118.589 47.9991C120.431 48.0171 122.255 47.6307 123.931 46.8674C125.533 46.1346 126.948 45.048 128.07 43.6893C129.208 42.3089 130.027 40.695 130.471 38.9622H126.198C125.814 40.0213 125.207 40.9856 124.418 41.7898C123.673 42.5415 122.776 43.1264 121.788 43.5057C120.777 43.8909 119.704 44.0855 118.623 44.0799C117.162 44.0794 115.728 43.6874 114.47 42.9449C113.144 42.1727 112.05 41.0591 111.302 39.72C110.511 38.229 110.098 36.5671 110.098 34.8794C110.098 33.1918 110.511 31.5298 111.302 30.0388C112.052 28.7028 113.146 27.5917 114.47 26.8206Z" fill="#1D1E1E"/>
<path d="M154.216 23.508C152.217 22.3513 149.948 21.7422 147.639 21.7422C145.33 21.7422 143.061 22.3513 141.062 23.508C139.119 24.6561 137.514 26.2987 136.412 28.2685C135.298 30.2924 134.714 32.565 134.714 34.8751C134.714 37.1851 135.298 39.4577 136.412 41.4817C137.515 43.4532 139.121 45.097 141.066 46.2455C143.049 47.4186 145.315 48.0248 147.619 47.9981C149.937 48.0244 152.219 47.4185 154.219 46.2455C156.176 45.1054 157.79 43.46 158.893 41.4817C160.006 39.4577 160.59 37.1851 160.59 34.8751C160.59 32.565 160.006 30.2924 158.893 28.2685C157.778 26.2988 156.165 24.6569 154.216 23.508ZM155.25 39.5721C154.686 40.5864 153.926 41.4779 153.012 42.1942C152.099 42.9105 151.052 43.4372 149.933 43.7435C148.813 44.0498 147.644 44.1294 146.494 43.9778C145.343 43.8261 144.234 43.4463 143.232 42.8604C141.898 42.0709 140.804 40.9344 140.064 39.5721C139.306 38.1256 138.909 36.5167 138.909 34.8834C138.909 33.2501 139.306 31.6412 140.064 30.1947C140.805 28.8298 141.899 27.6894 143.232 26.8931C144.577 26.1039 146.107 25.6879 147.666 25.6879C149.224 25.6879 150.755 26.1039 152.099 26.8931C153.429 27.6882 154.518 28.8293 155.25 30.1947C156.003 31.6431 156.395 33.2513 156.395 34.8834C156.395 36.5155 156.003 38.1237 155.25 39.5721Z" fill="#1D1E1E"/>
<path d="M183.503 23.807C182.001 22.8945 180.154 22.4394 177.962 22.4416C176.631 22.434 175.31 22.6728 174.066 23.146C172.888 23.5931 171.805 24.2591 170.874 25.1089C169.996 25.9014 169.291 26.8676 168.805 27.9465V23.146H164.799V47.9933H168.988V34.937C168.955 33.362 169.333 31.8054 170.083 30.4202C170.761 29.1717 171.768 28.1326 172.994 27.4157C174.18 26.7241 175.53 26.3633 176.903 26.3708C179.129 26.3708 180.843 27.0441 182.044 28.3905C183.246 29.737 183.847 31.8079 183.847 34.6032V48H188.033V34.5364C188.033 31.888 187.656 29.6624 186.902 27.8597C186.238 26.1761 185.046 24.7537 183.503 23.807Z" fill="#1D1E1E"/>
</g>
<defs>
<clipPath id="clip0_5090_38166">
<rect width="260" height="48" fill="white"/>
</clipPath>
</defs>
</svg>
