<svg width="242" height="74" viewBox="0 0 242 74" fill="none" xmlns="http://www.w3.org/2000/svg">
<path d="M15.23 53.7102C15.23 52.1502 14.12 50.8202 12.04 50.8202H5.26V56.5602H12.04C14.04 56.5602 15.23 55.4902 15.23 53.7102ZM14.75 43.6302C14.75 42.0702 13.64 40.9202 11.86 40.9202H5.26V46.2902H11.86C13.64 46.3002 14.75 45.1902 14.75 43.6302ZM0 61.1202V36.4102H13C17.71 36.4102 20.12 39.4102 20.12 42.7102C20.12 45.8202 18.19 47.9002 15.86 48.3802C18.49 48.7902 20.6 51.3402 20.6 54.4602C20.6 58.1702 18.12 61.1302 13.41 61.1302H0V61.1202Z" fill="#AEB2BF"/>
<path d="M46.35 57.64L49.2 53.64C50.94 55.46 53.65 56.97 57.05 56.97C59.94 56.97 61.35 55.64 61.35 54.23C61.35 49.86 47.12 52.86 47.12 43.56C47.12 39.45 50.68 36.04 56.5 36.04C60.43 36.04 63.69 37.23 66.13 39.49L63.2 43.34C61.2 41.49 58.53 40.64 56.01 40.64C53.75 40.64 52.49 41.64 52.49 43.12C52.49 47.05 66.68 44.42 66.68 53.64C66.68 58.16 63.46 61.57 56.79 61.57C52.06 61.57 48.65 59.97 46.35 57.64Z" fill="#AEB2BF"/>
<path d="M76.41 61.1202V41.0402H69.18V36.4102H88.89V41.0402H81.71V61.1202H76.41Z" fill="#AEB2BF"/>
<path d="M91.12 48.78C91.12 41.19 96.86 36 104.27 36C109.72 36 112.87 38.96 114.61 42.04L110.09 44.26C109.05 42.26 106.83 40.66 104.27 40.66C99.79 40.66 96.53 44.11 96.53 48.77C96.53 53.44 99.79 56.89 104.27 56.89C106.83 56.89 109.05 55.33 110.09 53.3L114.61 55.49C112.83 58.57 109.72 61.57 104.27 61.57C96.86 61.57 91.12 56.38 91.12 48.78Z" fill="#AEB2BF"/>
<path d="M137.91 48.78C137.91 44.15 134.95 40.67 130.39 40.67C125.83 40.67 122.91 44.15 122.91 48.78C122.91 53.38 125.84 56.9 130.39 56.9C134.95 56.9 137.91 53.38 137.91 48.78ZM117.5 48.78C117.5 41.33 122.95 36 130.39 36C137.87 36 143.32 41.33 143.32 48.78C143.32 56.23 137.87 61.56 130.39 61.56C122.95 61.57 117.5 56.23 117.5 48.78Z" fill="#AEB2BF"/>
<path d="M165 61.1202L153.22 45.0002V61.1202H147.96V36.4102H153.37L164.82 51.9302V36.4102H170.08V61.1202H165Z" fill="#AEB2BF"/>
<path d="M42.98 36.4102H25.49V41.0402H42.98V36.4102Z" fill="#AEB2BF"/>
<path d="M42.98 56.4902H25.49V61.1202H42.98V56.4902Z" fill="#AEB2BF"/>
<path d="M38.92 46.2598H29.55V50.8898H38.92V46.2598Z" fill="#AEB2BF"/>
<path d="M183.228 61C183.101 61.0422 182.89 61.0633 182.595 61.0633C181.92 61.0633 181.392 60.7257 181.013 60.0507C180.633 59.3756 180.443 58.4473 180.443 57.2659C180.443 56.2955 180.569 55.1774 180.823 53.9116C181.287 52.688 181.519 51.8019 181.519 51.2534C181.645 50.4518 182.067 49.0172 182.785 46.9497C183.544 44.8401 184.029 43.5743 184.24 43.1524C184.409 43.1524 184.557 43.0258 184.683 42.7726C184.81 42.4773 184.873 42.1608 184.873 41.8233C184.873 41.4436 184.936 41.0638 185.063 40.6841C185.232 40.2621 185.401 39.9668 185.569 39.798C185.569 39.6714 185.612 39.4394 185.696 39.1018C185.823 38.7643 185.886 38.5322 185.886 38.4057C185.886 38.3213 185.928 38.1736 186.012 37.9626C186.139 37.7095 186.202 37.5196 186.202 37.393C186.877 36.085 188.059 33.1526 189.746 28.5958C191.434 23.9968 192.278 21.4441 192.278 20.9378C192.278 20.2627 192.616 19.9251 193.291 19.9251C193.502 19.7142 193.839 19.6087 194.303 19.6087L195.316 20.6213C195.611 20.9167 195.801 21.2331 195.886 21.5707C195.97 21.866 196.012 22.3301 196.012 22.963C196.012 23.5959 195.928 24.1444 195.759 24.6085C195.59 25.0727 195.168 26.022 194.493 27.4566C194.367 27.7519 194.198 28.1106 193.987 28.5325C193.776 28.9122 193.544 29.3975 193.291 29.9882C193.206 30.1991 192.869 30.9586 192.278 32.2666C191.856 33.1104 191.645 33.5957 191.645 33.7222C191.645 33.8488 191.561 34.1231 191.392 34.545C191.223 34.9247 191.076 35.3256 190.949 35.7475C190.611 36.4226 190.063 37.6251 189.303 39.355C188.586 41.0427 188.228 41.971 188.228 42.1397C188.228 42.6039 188.122 42.9414 187.911 43.1524C187.784 43.1524 187.7 43.2579 187.658 43.4688C187.616 43.6376 187.595 43.7642 187.595 43.8486C187.595 44.2705 187.257 45.3886 186.582 47.2029L186.012 49.0383C185.211 51.7808 184.641 53.785 184.304 55.0508C184.008 56.3166 183.861 57.3925 183.861 58.2786C183.861 59.3334 183.818 60.0085 183.734 60.3038C183.692 60.5992 183.523 60.8312 183.228 61ZM198.857 33.2792C198.561 32.9839 198.308 32.4775 198.097 31.7603C197.886 31.043 197.886 30.6843 198.097 30.6843C198.435 30.6421 198.814 30.2835 199.236 29.6084C199.701 28.8911 199.911 28.3004 199.869 27.8363C199.869 27.6675 199.933 27.5199 200.059 27.3933C200.186 27.2245 200.333 27.119 200.502 27.0768C200.84 26.8659 201.135 26.7604 201.388 26.7604C202.106 26.7604 202.76 27.2667 203.35 28.2793C203.603 28.8278 203.73 29.3131 203.73 29.735C203.73 30.1147 203.624 30.5156 203.414 30.9375C203.203 31.3172 202.823 31.8236 202.274 32.4564C201.557 33.4269 200.882 33.9121 200.249 33.9121C199.827 33.9121 199.363 33.7011 198.857 33.2792ZM192.718 58.9747C192.127 58.384 191.832 57.5402 191.832 56.4432C191.832 55.8525 191.937 55.3461 192.148 54.9242C192.148 54.7132 192.19 54.4601 192.275 54.1647C192.359 53.8694 192.401 53.6795 192.401 53.5951C192.359 53.342 192.528 52.6458 192.907 51.5066C193.667 49.8189 194.68 46.8443 195.945 42.5828C195.945 42.3718 196.03 42.203 196.199 42.0764C196.367 41.9077 196.62 41.8022 196.958 41.76C197.296 41.6756 197.528 41.6334 197.654 41.6334C197.907 41.6334 198.118 41.7389 198.287 41.9499C198.498 42.1186 198.772 42.4562 199.11 42.9625C199.363 43.2157 199.49 43.5954 199.49 44.1017C199.49 44.9034 199.215 45.8738 198.667 47.013C198.118 48.2366 197.76 49.2914 197.591 50.1775C197.085 51.3167 196.684 52.3715 196.388 53.342C196.304 53.5951 196.177 54.1014 196.009 54.8609C195.84 55.6204 195.608 56.2322 195.312 56.6963C195.059 57.8777 194.827 58.7005 194.616 59.1646C194.405 59.6287 194.173 59.8608 193.92 59.8608C193.625 59.8608 193.224 59.5654 192.718 58.9747ZM207.117 65.7467C206.274 65.8311 205.556 65.2193 204.966 63.9113C204.375 62.6455 204.08 61 204.08 58.9747C204.037 58.6372 204.016 58.1098 204.016 57.3925C204.016 54.0593 204.881 49.3758 206.611 43.3422C207.202 41.2326 208.32 38.2791 209.965 34.4817C211.611 30.6843 212.603 28.638 212.94 28.3426H213.067C213.235 28.3426 213.32 28.1528 213.32 27.773C213.32 27.6886 213.489 27.3722 213.826 26.8237C214.164 26.233 214.48 25.6423 214.775 25.0516C215.619 23.828 216.674 22.6677 217.94 21.5707C219.206 20.4736 220.345 19.7142 221.358 19.2922C221.99 19.0391 222.623 18.9125 223.256 18.9125C224.48 18.9125 225.492 19.3344 226.294 20.1783C227.138 20.98 227.56 21.9926 227.56 23.2162C227.56 23.8913 227.412 24.5453 227.117 25.1782C226.779 26.5283 225.893 28.2582 224.459 30.3679C223.952 30.6211 223.531 30.7476 223.193 30.7476C222.982 30.7476 222.834 30.7054 222.75 30.6211C222.666 30.5367 222.687 30.4101 222.813 30.2413C222.813 30.0725 222.855 29.8405 222.94 29.5451C223.066 29.2498 223.151 28.9966 223.193 28.7857C223.193 28.7013 223.277 28.4481 223.446 28.0262C223.657 27.5621 223.763 27.1401 223.763 26.7604C224.142 25.2836 224.332 24.2288 224.332 23.5959C224.332 22.9208 224.121 22.5833 223.699 22.5833C223.32 22.5411 222.75 22.7521 221.99 23.2162C221.231 23.6381 220.851 23.9968 220.851 24.2921V24.5453C220.64 24.5031 219.881 25.2836 218.573 26.887C217.307 28.4481 216.316 29.8405 215.598 31.0641C214.459 33.4269 213.383 35.8952 212.37 38.4689L211.864 39.9879L212.877 40.1145C213.467 40.1567 214.691 40.009 216.548 39.6714C217.265 39.5449 217.877 39.4816 218.383 39.4816C219.1 39.4816 219.649 39.6082 220.028 39.8613C220.408 40.0723 220.704 40.452 220.915 41.0005C221.041 41.2959 221.104 41.5701 221.104 41.8233C221.104 42.4562 220.514 42.9203 219.332 43.2157C218.193 43.511 216.21 43.722 213.383 43.8486C213.003 43.8064 212.518 43.7853 211.927 43.7853C211.252 43.7853 210.83 43.8696 210.662 44.0384C210.408 44.165 210.008 45.0721 209.459 46.7599C208.953 48.4476 208.573 50.0298 208.32 51.5066C207.771 53.7006 207.497 56.0212 207.497 58.4684C207.497 59.903 207.603 61.0844 207.814 62.0126C207.982 62.6455 208.067 63.2784 208.067 63.9113C208.067 64.8818 207.75 65.4936 207.117 65.7467ZM228.32 61.1899C226.506 61.1899 225.008 60.5148 223.827 59.1646C222.645 57.8144 222.055 56.1267 222.055 54.1014C222.055 52.0762 222.498 49.8611 223.384 47.4561C224.312 45.0089 225.493 42.8148 226.928 40.8739C228.363 38.9331 229.818 37.6251 231.295 36.95C232.139 36.4859 233.088 36.2538 234.143 36.2538C234.945 36.2538 235.852 36.4859 236.864 36.95C237.582 37.2453 238.13 37.604 238.51 38.0259C238.89 38.4478 239.227 39.1018 239.523 39.9879C239.649 40.7474 239.713 41.2748 239.713 41.5701C239.713 41.8233 239.607 42.3718 239.396 43.2157C238.89 44.7768 238.215 46.1059 237.371 47.2029C236.569 48.2577 235.514 49.1649 234.206 49.9243C233.531 50.3463 232.687 50.5572 231.675 50.5572C230.789 50.5572 229.945 50.4096 229.143 50.1142C228.384 49.7767 227.793 49.2914 227.371 48.6586L226.928 48.1522L226.738 48.6586C225.852 50.937 225.409 52.8779 225.409 54.4812C225.409 55.5782 225.62 56.4643 226.042 57.1393C226.337 57.6035 227.055 57.8355 228.194 57.8355C229.038 57.8355 229.649 57.7511 230.029 57.5824C230.662 57.3714 231.211 57.1182 231.675 56.8229C232.181 56.4854 232.666 56.1478 233.13 55.8103L233.384 55.6837H233.32C233.827 55.4305 234.249 55.1985 234.586 54.9875C234.924 54.7765 235.156 54.6289 235.282 54.5445C235.367 54.5445 235.451 54.5234 235.535 54.4812C235.62 54.439 235.704 54.3546 235.789 54.228C236.168 54.0593 236.611 54.1225 237.118 54.4179C237.624 54.7132 237.877 55.093 237.877 55.5571C237.793 55.8946 237.413 56.4432 236.738 57.2026C236.063 57.9621 235.556 58.3629 235.219 58.4051C235.177 58.4051 235.029 58.4684 234.776 58.595C234.523 58.7216 234.354 58.8271 234.27 58.9114H234.333C233.953 59.4178 233.573 59.6709 233.194 59.6709H232.687C232.519 60.0085 231.949 60.346 230.979 60.6836C230.05 61.0211 229.164 61.1899 228.32 61.1899ZM231.168 47.2662C232.434 47.2662 233.595 46.5489 234.649 45.1143C235.662 43.7642 236.168 42.414 236.168 41.0638C236.168 40.3465 236.021 39.8402 235.725 39.5449C235.472 39.4183 235.24 39.355 235.029 39.355C234.818 39.355 234.459 39.4183 233.953 39.5449C233.405 39.6714 232.561 40.2621 231.422 41.317C230.282 42.3296 229.439 43.2368 228.89 44.0384L228.067 45.3675C228.405 45.2409 228.721 45.1776 229.017 45.1776C229.354 45.1354 229.544 45.1565 229.586 45.2409C229.586 45.8316 229.734 46.3168 230.029 46.6966C230.325 47.0763 230.704 47.2662 231.168 47.2662Z" fill="#225FB0"/>
</svg>
