<svg width="48" height="48" viewBox="0 0 48 48" fill="none" xmlns="http://www.w3.org/2000/svg">
<path d="M24.527 17.9852C23.2998 17.864 22.0651 18.125 20.992 18.7327C19.9189 19.3403 19.0598 20.2647 18.5324 21.3795C18.005 22.4942 17.835 23.7446 18.0458 24.9597C18.2565 26.1747 18.8377 27.2949 19.7097 28.1669C20.5817 29.0389 21.7019 29.6201 22.9169 29.8308C24.132 30.0416 25.3825 29.8716 26.4972 29.3442C27.6119 28.8168 28.5363 27.9577 29.144 26.8846C29.7516 25.8115 30.0127 24.5769 29.8915 23.3497C29.7533 21.9739 29.1437 20.6883 28.166 19.7106C27.1883 18.7329 25.9027 18.1233 24.527 17.9852ZM38.9288 23.9375C38.925 24.5876 38.8772 25.2368 38.7858 25.8805L43.0111 29.1945C43.1951 29.347 43.319 29.5598 43.361 29.7951C43.4029 30.0304 43.36 30.2729 43.2401 30.4796L39.2429 37.3954C39.1215 37.6001 38.9317 37.7554 38.7071 37.8339C38.4824 37.9123 38.2372 37.909 38.0148 37.8244L33.8186 36.1347C33.5871 36.0426 33.3365 36.0093 33.0891 36.0378C32.8416 36.0664 32.6051 36.1558 32.4008 36.2982C31.7604 36.7393 31.0874 37.131 30.3877 37.4702C30.1677 37.5771 29.9775 37.7366 29.8337 37.9344C29.6899 38.1323 29.5971 38.3625 29.5634 38.6048L28.9344 43.0805C28.8931 43.3169 28.771 43.5316 28.589 43.6879C28.4069 43.8442 28.1762 43.9324 27.9363 43.9375H19.9419C19.706 43.9334 19.4785 43.8491 19.2969 43.6984C19.1153 43.5477 18.9904 43.3397 18.9429 43.1085L18.3148 38.6394C18.2795 38.3944 18.1843 38.162 18.0376 37.9628C17.8908 37.7635 17.6971 37.6037 17.4737 37.4973C16.7748 37.16 16.1041 36.7671 15.4681 36.3225C15.2644 36.1809 15.0287 36.0921 14.7822 36.0642C14.5357 36.0363 14.2861 36.0701 14.0559 36.1627L9.86061 37.8515C9.63828 37.9362 9.39321 37.9397 9.16856 37.8614C8.94392 37.7831 8.75411 37.628 8.63257 37.4235L4.63538 30.5076C4.5152 30.301 4.47226 30.0584 4.51419 29.8231C4.55612 29.5878 4.6802 29.3749 4.86435 29.2225L8.43538 26.4188C8.63102 26.2635 8.78478 26.0618 8.8827 25.832C8.98063 25.6022 9.01961 25.3516 8.99613 25.1029C8.96248 24.7132 8.94192 24.3244 8.94192 23.9347C8.94192 23.545 8.96155 23.1618 8.99613 22.7805C9.01705 22.5333 8.97615 22.2848 8.87712 22.0574C8.77809 21.83 8.62403 21.6308 8.42884 21.4777L4.85968 18.6739C4.67852 18.5208 4.55705 18.3087 4.51655 18.075C4.47605 17.8412 4.51911 17.6006 4.63818 17.3954L8.63538 10.4796C8.75677 10.2749 8.94651 10.1196 9.17117 10.0411C9.39583 9.96266 9.64098 9.966 9.86342 10.0506L14.0597 11.7403C14.2911 11.8324 14.5417 11.8657 14.7892 11.8372C15.0366 11.8086 15.2731 11.7192 15.4774 11.5768C16.1179 11.1357 16.7908 10.744 17.4905 10.4048C17.7105 10.2979 17.9008 10.1384 18.0445 9.94056C18.1883 9.74269 18.2811 9.51246 18.3148 9.27021L18.9438 4.79451C18.9851 4.55814 19.1072 4.34345 19.2893 4.18713C19.4713 4.03082 19.702 3.94258 19.9419 3.9375H27.9363C28.1723 3.94158 28.3998 4.02591 28.5814 4.1766C28.763 4.32728 28.8878 4.53533 28.9354 4.76647L29.5634 9.23563C29.5987 9.48055 29.6939 9.71297 29.8407 9.91221C29.9874 10.1115 30.1811 10.2713 30.4045 10.3777C31.1034 10.715 31.7741 11.1079 32.4101 11.5525C32.6138 11.6941 32.8495 11.7829 33.096 11.8108C33.3425 11.8387 33.5921 11.8049 33.8223 11.7123L38.0176 10.0235C38.24 9.93882 38.485 9.93533 38.7097 10.0136C38.9343 10.0919 39.1241 10.247 39.2457 10.4515L43.2429 17.3674C43.363 17.574 43.406 17.8166 43.364 18.0519C43.3221 18.2872 43.198 18.5001 43.0139 18.6525L39.4429 21.4562C39.2464 21.611 39.0917 21.8125 38.993 22.0423C38.8942 22.2721 38.8545 22.523 38.8774 22.7721C38.9083 23.159 38.9288 23.5478 38.9288 23.9375Z" stroke="#4854ED" stroke-width="3.4" stroke-linecap="round" stroke-linejoin="round"/>
</svg>
