<svg width="48" height="48" viewBox="0 0 48 48" fill="none" xmlns="http://www.w3.org/2000/svg">
<path d="M14 18.02L14.02 17.998M22 18.02L22.02 17.998M14 26.02L14.02 25.998M22 26.02L22.02 25.998M14 34.02L14.02 33.998M22 34.02L22.02 33.998M30 42H7.2C6.88174 42 6.57652 41.8736 6.35147 41.6485C6.12643 41.4235 6 41.1183 6 40.8V11.2C6 10.8817 6.12643 10.5765 6.35147 10.3515C6.57652 10.1264 6.88174 10 7.2 10H18V7.2C18 6.88174 18.1264 6.57652 18.3515 6.35147C18.5765 6.12643 18.8817 6 19.2 6H28.8C29.1183 6 29.4235 6.12643 29.6485 6.35147C29.8736 6.57652 30 6.88174 30 7.2V18M30 42H40.8C41.1183 42 41.4235 41.8736 41.6485 41.6485C41.8736 41.4235 42 41.1183 42 40.8V19.2C42 18.8817 41.8736 18.5765 41.6485 18.3515C41.4235 18.1264 41.1183 18 40.8 18H30M30 42V34M30 18V26M30 34V26M30 34H34M30 26H34" stroke="#4854ED" stroke-width="3.4" stroke-linecap="round" stroke-linejoin="round"/>
</svg>
