<svg width="447" height="447" viewBox="0 0 447 447" fill="none" xmlns="http://www.w3.org/2000/svg">
<rect x="5" y="5" width="437" height="437" rx="218.5" fill="#4854ED"/>
<g clip-path="url(#clip0_5312_36346)">
<path d="M123.816 98.7041H118.704V103.816H123.816V98.7041Z" fill="white"/>
<path d="M128.928 98.7041H123.816V103.816H128.928V98.7041Z" fill="white"/>
<path d="M134.04 98.7041H128.928V103.816H134.04V98.7041Z" fill="white"/>
<path d="M139.152 98.7041H134.04V103.816H139.152V98.7041Z" fill="white"/>
<path d="M144.264 98.7041H139.152V103.816H144.264V98.7041Z" fill="white"/>
<path d="M149.376 98.7041H144.264V103.816H149.376V98.7041Z" fill="white"/>
<path d="M154.488 98.7041H149.376V103.816H154.488V98.7041Z" fill="white"/>
<path d="M164.712 98.7041H159.6V103.816H164.712V98.7041Z" fill="white"/>
<path d="M180.048 98.7041H174.936V103.816H180.048V98.7041Z" fill="white"/>
<path d="M205.608 98.7041H200.496V103.816H205.608V98.7041Z" fill="white"/>
<path d="M210.72 98.7041H205.608V103.816H210.72V98.7041Z" fill="white"/>
<path d="M220.944 98.7041H215.832V103.816H220.944V98.7041Z" fill="white"/>
<path d="M226.056 98.7041H220.944V103.816H226.056V98.7041Z" fill="white"/>
<path d="M231.168 98.7041H226.056V103.816H231.168V98.7041Z" fill="white"/>
<path d="M256.728 98.7041H251.616V103.816H256.728V98.7041Z" fill="white"/>
<path d="M266.952 98.7041H261.84V103.816H266.952V98.7041Z" fill="white"/>
<path d="M282.288 98.7041H277.176V103.816H282.288V98.7041Z" fill="white"/>
<path d="M287.4 98.7041H282.288V103.816H287.4V98.7041Z" fill="white"/>
<path d="M297.624 98.7041H292.512V103.816H297.624V98.7041Z" fill="white"/>
<path d="M302.736 98.7041H297.624V103.816H302.736V98.7041Z" fill="white"/>
<path d="M307.848 98.7041H302.736V103.816H307.848V98.7041Z" fill="white"/>
<path d="M312.96 98.7041H307.848V103.816H312.96V98.7041Z" fill="white"/>
<path d="M318.072 98.7041H312.96V103.816H318.072V98.7041Z" fill="white"/>
<path d="M323.184 98.7041H318.072V103.816H323.184V98.7041Z" fill="white"/>
<path d="M328.296 98.7041H323.184V103.816H328.296V98.7041Z" fill="white"/>
<path d="M123.816 103.816H118.704V108.928H123.816V103.816Z" fill="white"/>
<path d="M154.488 103.816H149.376V108.928H154.488V103.816Z" fill="white"/>
<path d="M164.712 103.816H159.6V108.928H164.712V103.816Z" fill="white"/>
<path d="M169.824 103.816H164.712V108.928H169.824V103.816Z" fill="white"/>
<path d="M174.936 103.816H169.824V108.928H174.936V103.816Z" fill="white"/>
<path d="M180.048 103.816H174.936V108.928H180.048V103.816Z" fill="white"/>
<path d="M185.16 103.816H180.048V108.928H185.16V103.816Z" fill="white"/>
<path d="M190.272 103.816H185.16V108.928H190.272V103.816Z" fill="white"/>
<path d="M220.944 103.816H215.832V108.928H220.944V103.816Z" fill="white"/>
<path d="M241.392 103.816H236.28V108.928H241.392V103.816Z" fill="white"/>
<path d="M261.84 103.816H256.728V108.928H261.84V103.816Z" fill="white"/>
<path d="M272.064 103.816H266.952V108.928H272.064V103.816Z" fill="white"/>
<path d="M297.624 103.816H292.512V108.928H297.624V103.816Z" fill="white"/>
<path d="M328.296 103.816H323.184V108.928H328.296V103.816Z" fill="white"/>
<path d="M123.816 108.928H118.704V114.04H123.816V108.928Z" fill="white"/>
<path d="M134.04 108.928H128.928V114.04H134.04V108.928Z" fill="white"/>
<path d="M139.152 108.928H134.04V114.04H139.152V108.928Z" fill="white"/>
<path d="M144.264 108.928H139.152V114.04H144.264V108.928Z" fill="white"/>
<path d="M154.488 108.928H149.376V114.04H154.488V108.928Z" fill="white"/>
<path d="M164.712 108.928H159.6V114.04H164.712V108.928Z" fill="white"/>
<path d="M169.824 108.928H164.712V114.04H169.824V108.928Z" fill="white"/>
<path d="M195.384 108.928H190.272V114.04H195.384V108.928Z" fill="white"/>
<path d="M200.496 108.928H195.384V114.04H200.496V108.928Z" fill="white"/>
<path d="M205.608 108.928H200.496V114.04H205.608V108.928Z" fill="white"/>
<path d="M210.72 108.928H205.608V114.04H210.72V108.928Z" fill="white"/>
<path d="M215.832 108.928H210.72V114.04H215.832V108.928Z" fill="white"/>
<path d="M266.952 108.928H261.84V114.04H266.952V108.928Z" fill="white"/>
<path d="M277.176 108.928H272.064V114.04H277.176V108.928Z" fill="white"/>
<path d="M282.288 108.928H277.176V114.04H282.288V108.928Z" fill="white"/>
<path d="M287.4 108.928H282.288V114.04H287.4V108.928Z" fill="white"/>
<path d="M297.624 108.928H292.512V114.04H297.624V108.928Z" fill="white"/>
<path d="M307.848 108.928H302.736V114.04H307.848V108.928Z" fill="white"/>
<path d="M312.96 108.928H307.848V114.04H312.96V108.928Z" fill="white"/>
<path d="M318.072 108.928H312.96V114.04H318.072V108.928Z" fill="white"/>
<path d="M328.296 108.928H323.184V114.04H328.296V108.928Z" fill="white"/>
<path d="M123.816 114.04H118.704V119.152H123.816V114.04Z" fill="white"/>
<path d="M134.04 114.04H128.928V119.152H134.04V114.04Z" fill="white"/>
<path d="M139.152 114.04H134.04V119.152H139.152V114.04Z" fill="white"/>
<path d="M144.264 114.04H139.152V119.152H144.264V114.04Z" fill="white"/>
<path d="M154.488 114.04H149.376V119.152H154.488V114.04Z" fill="white"/>
<path d="M185.16 114.04H180.048V119.152H185.16V114.04Z" fill="white"/>
<path d="M200.496 114.04H195.384V119.152H200.496V114.04Z" fill="white"/>
<path d="M210.72 114.04H205.608V119.152H210.72V114.04Z" fill="white"/>
<path d="M226.056 114.04H220.944V119.152H226.056V114.04Z" fill="white"/>
<path d="M231.168 114.04H226.056V119.152H231.168V114.04Z" fill="white"/>
<path d="M236.28 114.04H231.168V119.152H236.28V114.04Z" fill="white"/>
<path d="M241.392 114.04H236.28V119.152H241.392V114.04Z" fill="white"/>
<path d="M246.504 114.04H241.392V119.152H246.504V114.04Z" fill="white"/>
<path d="M261.84 114.04H256.728V119.152H261.84V114.04Z" fill="white"/>
<path d="M266.952 114.04H261.84V119.152H266.952V114.04Z" fill="white"/>
<path d="M272.064 114.04H266.952V119.152H272.064V114.04Z" fill="white"/>
<path d="M287.4 114.04H282.288V119.152H287.4V114.04Z" fill="white"/>
<path d="M297.624 114.04H292.512V119.152H297.624V114.04Z" fill="white"/>
<path d="M307.848 114.04H302.736V119.152H307.848V114.04Z" fill="white"/>
<path d="M312.96 114.04H307.848V119.152H312.96V114.04Z" fill="white"/>
<path d="M318.072 114.04H312.96V119.152H318.072V114.04Z" fill="white"/>
<path d="M328.296 114.04H323.184V119.152H328.296V114.04Z" fill="white"/>
<path d="M123.816 119.152H118.704V124.264H123.816V119.152Z" fill="white"/>
<path d="M134.04 119.152H128.928V124.264H134.04V119.152Z" fill="white"/>
<path d="M139.152 119.152H134.04V124.264H139.152V119.152Z" fill="white"/>
<path d="M144.264 119.152H139.152V124.264H144.264V119.152Z" fill="white"/>
<path d="M154.488 119.152H149.376V124.264H154.488V119.152Z" fill="white"/>
<path d="M169.824 119.152H164.712V124.264H169.824V119.152Z" fill="white"/>
<path d="M174.936 119.152H169.824V124.264H174.936V119.152Z" fill="white"/>
<path d="M180.048 119.152H174.936V124.264H180.048V119.152Z" fill="white"/>
<path d="M190.272 119.152H185.16V124.264H190.272V119.152Z" fill="white"/>
<path d="M195.384 119.152H190.272V124.264H195.384V119.152Z" fill="white"/>
<path d="M205.608 119.152H200.496V124.264H205.608V119.152Z" fill="white"/>
<path d="M210.72 119.152H205.608V124.264H210.72V119.152Z" fill="white"/>
<path d="M215.832 119.152H210.72V124.264H215.832V119.152Z" fill="white"/>
<path d="M220.944 119.152H215.832V124.264H220.944V119.152Z" fill="white"/>
<path d="M226.056 119.152H220.944V124.264H226.056V119.152Z" fill="white"/>
<path d="M251.616 119.152H246.504V124.264H251.616V119.152Z" fill="white"/>
<path d="M266.952 119.152H261.84V124.264H266.952V119.152Z" fill="white"/>
<path d="M282.288 119.152H277.176V124.264H282.288V119.152Z" fill="white"/>
<path d="M287.4 119.152H282.288V124.264H287.4V119.152Z" fill="white"/>
<path d="M297.624 119.152H292.512V124.264H297.624V119.152Z" fill="white"/>
<path d="M307.848 119.152H302.736V124.264H307.848V119.152Z" fill="white"/>
<path d="M312.96 119.152H307.848V124.264H312.96V119.152Z" fill="white"/>
<path d="M318.072 119.152H312.96V124.264H318.072V119.152Z" fill="white"/>
<path d="M328.296 119.152H323.184V124.264H328.296V119.152Z" fill="white"/>
<path d="M123.816 124.264H118.704V129.376H123.816V124.264Z" fill="white"/>
<path d="M154.488 124.264H149.376V129.376H154.488V124.264Z" fill="white"/>
<path d="M164.712 124.264H159.6V129.376H164.712V124.264Z" fill="white"/>
<path d="M169.824 124.264H164.712V129.376H169.824V124.264Z" fill="white"/>
<path d="M174.936 124.264H169.824V129.376H174.936V124.264Z" fill="white"/>
<path d="M180.048 124.264H174.936V129.376H180.048V124.264Z" fill="white"/>
<path d="M185.16 124.264H180.048V129.376H185.16V124.264Z" fill="white"/>
<path d="M215.832 124.264H210.72V129.376H215.832V124.264Z" fill="white"/>
<path d="M220.944 124.264H215.832V129.376H220.944V124.264Z" fill="white"/>
<path d="M231.168 124.264H226.056V129.376H231.168V124.264Z" fill="white"/>
<path d="M236.28 124.264H231.168V129.376H236.28V124.264Z" fill="white"/>
<path d="M241.392 124.264H236.28V129.376H241.392V124.264Z" fill="white"/>
<path d="M251.616 124.264H246.504V129.376H251.616V124.264Z" fill="white"/>
<path d="M261.84 124.264H256.728V129.376H261.84V124.264Z" fill="white"/>
<path d="M272.064 124.264H266.952V129.376H272.064V124.264Z" fill="white"/>
<path d="M297.624 124.264H292.512V129.376H297.624V124.264Z" fill="white"/>
<path d="M328.296 124.264H323.184V129.376H328.296V124.264Z" fill="white"/>
<path d="M123.816 129.376H118.704V134.488H123.816V129.376Z" fill="white"/>
<path d="M128.928 129.376H123.816V134.488H128.928V129.376Z" fill="white"/>
<path d="M134.04 129.376H128.928V134.488H134.04V129.376Z" fill="white"/>
<path d="M139.152 129.376H134.04V134.488H139.152V129.376Z" fill="white"/>
<path d="M144.264 129.376H139.152V134.488H144.264V129.376Z" fill="white"/>
<path d="M149.376 129.376H144.264V134.488H149.376V129.376Z" fill="white"/>
<path d="M154.488 129.376H149.376V134.488H154.488V129.376Z" fill="white"/>
<path d="M164.712 129.376H159.6V134.488H164.712V129.376Z" fill="white"/>
<path d="M174.936 129.376H169.824V134.488H174.936V129.376Z" fill="white"/>
<path d="M185.16 129.376H180.048V134.488H185.16V129.376Z" fill="white"/>
<path d="M195.384 129.376H190.272V134.488H195.384V129.376Z" fill="white"/>
<path d="M205.608 129.376H200.496V134.488H205.608V129.376Z" fill="white"/>
<path d="M215.832 129.376H210.72V134.488H215.832V129.376Z" fill="white"/>
<path d="M226.056 129.376H220.944V134.488H226.056V129.376Z" fill="white"/>
<path d="M236.28 129.376H231.168V134.488H236.28V129.376Z" fill="white"/>
<path d="M246.504 129.376H241.392V134.488H246.504V129.376Z" fill="white"/>
<path d="M256.728 129.376H251.616V134.488H256.728V129.376Z" fill="white"/>
<path d="M266.952 129.376H261.84V134.488H266.952V129.376Z" fill="white"/>
<path d="M277.176 129.376H272.064V134.488H277.176V129.376Z" fill="white"/>
<path d="M287.4 129.376H282.288V134.488H287.4V129.376Z" fill="white"/>
<path d="M297.624 129.376H292.512V134.488H297.624V129.376Z" fill="white"/>
<path d="M302.736 129.376H297.624V134.488H302.736V129.376Z" fill="white"/>
<path d="M307.848 129.376H302.736V134.488H307.848V129.376Z" fill="white"/>
<path d="M312.96 129.376H307.848V134.488H312.96V129.376Z" fill="white"/>
<path d="M318.072 129.376H312.96V134.488H318.072V129.376Z" fill="white"/>
<path d="M323.184 129.376H318.072V134.488H323.184V129.376Z" fill="white"/>
<path d="M328.296 129.376H323.184V134.488H328.296V129.376Z" fill="white"/>
<path d="M164.712 134.488H159.6V139.6H164.712V134.488Z" fill="white"/>
<path d="M169.824 134.488H164.712V139.6H169.824V134.488Z" fill="white"/>
<path d="M190.272 134.488H185.16V139.6H190.272V134.488Z" fill="white"/>
<path d="M200.496 134.488H195.384V139.6H200.496V134.488Z" fill="white"/>
<path d="M205.608 134.488H200.496V139.6H205.608V134.488Z" fill="white"/>
<path d="M210.72 134.488H205.608V139.6H210.72V134.488Z" fill="white"/>
<path d="M231.168 134.488H226.056V139.6H231.168V134.488Z" fill="white"/>
<path d="M236.28 134.488H231.168V139.6H236.28V134.488Z" fill="white"/>
<path d="M251.616 134.488H246.504V139.6H251.616V134.488Z" fill="white"/>
<path d="M266.952 134.488H261.84V139.6H266.952V134.488Z" fill="white"/>
<path d="M277.176 134.488H272.064V139.6H277.176V134.488Z" fill="white"/>
<path d="M282.288 134.488H277.176V139.6H282.288V134.488Z" fill="white"/>
<path d="M287.4 134.488H282.288V139.6H287.4V134.488Z" fill="white"/>
<path d="M134.04 139.6H128.928V144.712H134.04V139.6Z" fill="white"/>
<path d="M139.152 139.6H134.04V144.712H139.152V139.6Z" fill="white"/>
<path d="M144.264 139.6H139.152V144.712H144.264V139.6Z" fill="white"/>
<path d="M154.488 139.6H149.376V144.712H154.488V139.6Z" fill="white"/>
<path d="M164.712 139.6H159.6V144.712H164.712V139.6Z" fill="white"/>
<path d="M169.824 139.6H164.712V144.712H169.824V139.6Z" fill="white"/>
<path d="M185.16 139.6H180.048V144.712H185.16V139.6Z" fill="white"/>
<path d="M200.496 139.6H195.384V144.712H200.496V139.6Z" fill="white"/>
<path d="M210.72 139.6H205.608V144.712H210.72V139.6Z" fill="white"/>
<path d="M215.832 139.6H210.72V144.712H215.832V139.6Z" fill="white"/>
<path d="M226.056 139.6H220.944V144.712H226.056V139.6Z" fill="white"/>
<path d="M241.392 139.6H236.28V144.712H241.392V139.6Z" fill="white"/>
<path d="M251.616 139.6H246.504V144.712H251.616V139.6Z" fill="white"/>
<path d="M261.84 139.6H256.728V144.712H261.84V139.6Z" fill="white"/>
<path d="M266.952 139.6H261.84V144.712H266.952V139.6Z" fill="white"/>
<path d="M272.064 139.6H266.952V144.712H272.064V139.6Z" fill="white"/>
<path d="M287.4 139.6H282.288V144.712H287.4V139.6Z" fill="white"/>
<path d="M292.512 139.6H287.4V144.712H292.512V139.6Z" fill="white"/>
<path d="M297.624 139.6H292.512V144.712H297.624V139.6Z" fill="white"/>
<path d="M302.736 139.6H297.624V144.712H302.736V139.6Z" fill="white"/>
<path d="M318.072 139.6H312.96V144.712H318.072V139.6Z" fill="white"/>
<path d="M323.184 139.6H318.072V144.712H323.184V139.6Z" fill="white"/>
<path d="M328.296 139.6H323.184V144.712H328.296V139.6Z" fill="white"/>
<path d="M123.816 144.712H118.704V149.824H123.816V144.712Z" fill="white"/>
<path d="M134.04 144.712H128.928V149.824H134.04V144.712Z" fill="white"/>
<path d="M139.152 144.712H134.04V149.824H139.152V144.712Z" fill="white"/>
<path d="M149.376 144.712H144.264V149.824H149.376V144.712Z" fill="white"/>
<path d="M159.6 144.712H154.488V149.824H159.6V144.712Z" fill="white"/>
<path d="M180.048 144.712H174.936V149.824H180.048V144.712Z" fill="white"/>
<path d="M205.608 144.712H200.496V149.824H205.608V144.712Z" fill="white"/>
<path d="M210.72 144.712H205.608V149.824H210.72V144.712Z" fill="white"/>
<path d="M215.832 144.712H210.72V149.824H215.832V144.712Z" fill="white"/>
<path d="M220.944 144.712H215.832V149.824H220.944V144.712Z" fill="white"/>
<path d="M226.056 144.712H220.944V149.824H226.056V144.712Z" fill="white"/>
<path d="M236.28 144.712H231.168V149.824H236.28V144.712Z" fill="white"/>
<path d="M256.728 144.712H251.616V149.824H256.728V144.712Z" fill="white"/>
<path d="M266.952 144.712H261.84V149.824H266.952V144.712Z" fill="white"/>
<path d="M282.288 144.712H277.176V149.824H282.288V144.712Z" fill="white"/>
<path d="M287.4 144.712H282.288V149.824H287.4V144.712Z" fill="white"/>
<path d="M297.624 144.712H292.512V149.824H297.624V144.712Z" fill="white"/>
<path d="M302.736 144.712H297.624V149.824H302.736V144.712Z" fill="white"/>
<path d="M307.848 144.712H302.736V149.824H307.848V144.712Z" fill="white"/>
<path d="M328.296 144.712H323.184V149.824H328.296V144.712Z" fill="white"/>
<path d="M139.152 149.824H134.04V154.936H139.152V149.824Z" fill="white"/>
<path d="M154.488 149.824H149.376V154.936H154.488V149.824Z" fill="white"/>
<path d="M164.712 149.824H159.6V154.936H164.712V149.824Z" fill="white"/>
<path d="M180.048 149.824H174.936V154.936H180.048V149.824Z" fill="white"/>
<path d="M190.272 149.824H185.16V154.936H190.272V149.824Z" fill="white"/>
<path d="M195.384 149.824H190.272V154.936H195.384V149.824Z" fill="white"/>
<path d="M200.496 149.824H195.384V154.936H200.496V149.824Z" fill="white"/>
<path d="M210.72 149.824H205.608V154.936H210.72V149.824Z" fill="white"/>
<path d="M215.832 149.824H210.72V154.936H215.832V149.824Z" fill="white"/>
<path d="M246.504 149.824H241.392V154.936H246.504V149.824Z" fill="white"/>
<path d="M256.728 149.824H251.616V154.936H256.728V149.824Z" fill="white"/>
<path d="M261.84 149.824H256.728V154.936H261.84V149.824Z" fill="white"/>
<path d="M272.064 149.824H266.952V154.936H272.064V149.824Z" fill="white"/>
<path d="M312.96 149.824H307.848V154.936H312.96V149.824Z" fill="white"/>
<path d="M318.072 149.824H312.96V154.936H318.072V149.824Z" fill="white"/>
<path d="M123.816 154.936H118.704V160.048H123.816V154.936Z" fill="white"/>
<path d="M128.928 154.936H123.816V160.048H128.928V154.936Z" fill="white"/>
<path d="M134.04 154.936H128.928V160.048H134.04V154.936Z" fill="white"/>
<path d="M139.152 154.936H134.04V160.048H139.152V154.936Z" fill="white"/>
<path d="M144.264 154.936H139.152V160.048H144.264V154.936Z" fill="white"/>
<path d="M159.6 154.936H154.488V160.048H159.6V154.936Z" fill="white"/>
<path d="M164.712 154.936H159.6V160.048H164.712V154.936Z" fill="white"/>
<path d="M226.056 154.936H220.944V160.048H226.056V154.936Z" fill="white"/>
<path d="M241.392 154.936H236.28V160.048H241.392V154.936Z" fill="white"/>
<path d="M251.616 154.936H246.504V160.048H251.616V154.936Z" fill="white"/>
<path d="M266.952 154.936H261.84V160.048H266.952V154.936Z" fill="white"/>
<path d="M277.176 154.936H272.064V160.048H277.176V154.936Z" fill="white"/>
<path d="M282.288 154.936H277.176V160.048H282.288V154.936Z" fill="white"/>
<path d="M287.4 154.936H282.288V160.048H287.4V154.936Z" fill="white"/>
<path d="M292.512 154.936H287.4V160.048H292.512V154.936Z" fill="white"/>
<path d="M297.624 154.936H292.512V160.048H297.624V154.936Z" fill="white"/>
<path d="M302.736 154.936H297.624V160.048H302.736V154.936Z" fill="white"/>
<path d="M307.848 154.936H302.736V160.048H307.848V154.936Z" fill="white"/>
<path d="M318.072 154.936H312.96V160.048H318.072V154.936Z" fill="white"/>
<path d="M323.184 154.936H318.072V160.048H323.184V154.936Z" fill="white"/>
<path d="M328.296 154.936H323.184V160.048H328.296V154.936Z" fill="white"/>
<path d="M123.816 160.048H118.704V165.16H123.816V160.048Z" fill="white"/>
<path d="M134.04 160.048H128.928V165.16H134.04V160.048Z" fill="white"/>
<path d="M139.152 160.048H134.04V165.16H139.152V160.048Z" fill="white"/>
<path d="M154.488 160.048H149.376V165.16H154.488V160.048Z" fill="white"/>
<path d="M164.712 160.048H159.6V165.16H164.712V160.048Z" fill="white"/>
<path d="M174.936 160.048H169.824V165.16H174.936V160.048Z" fill="white"/>
<path d="M180.048 160.048H174.936V165.16H180.048V160.048Z" fill="white"/>
<path d="M195.384 160.048H190.272V165.16H195.384V160.048Z" fill="white"/>
<path d="M210.72 160.048H205.608V165.16H210.72V160.048Z" fill="white"/>
<path d="M226.056 160.048H220.944V165.16H226.056V160.048Z" fill="white"/>
<path d="M236.28 160.048H231.168V165.16H236.28V160.048Z" fill="white"/>
<path d="M246.504 160.048H241.392V165.16H246.504V160.048Z" fill="white"/>
<path d="M251.616 160.048H246.504V165.16H251.616V160.048Z" fill="white"/>
<path d="M261.84 160.048H256.728V165.16H261.84V160.048Z" fill="white"/>
<path d="M266.952 160.048H261.84V165.16H266.952V160.048Z" fill="white"/>
<path d="M272.064 160.048H266.952V165.16H272.064V160.048Z" fill="white"/>
<path d="M287.4 160.048H282.288V165.16H287.4V160.048Z" fill="white"/>
<path d="M302.736 160.048H297.624V165.16H302.736V160.048Z" fill="white"/>
<path d="M128.928 165.16H123.816V170.272H128.928V165.16Z" fill="white"/>
<path d="M134.04 165.16H128.928V170.272H134.04V165.16Z" fill="white"/>
<path d="M139.152 165.16H134.04V170.272H139.152V165.16Z" fill="white"/>
<path d="M149.376 165.16H144.264V170.272H149.376V165.16Z" fill="white"/>
<path d="M159.6 165.16H154.488V170.272H159.6V165.16Z" fill="white"/>
<path d="M174.936 165.16H169.824V170.272H174.936V165.16Z" fill="white"/>
<path d="M185.16 165.16H180.048V170.272H185.16V165.16Z" fill="white"/>
<path d="M195.384 165.16H190.272V170.272H195.384V165.16Z" fill="white"/>
<path d="M210.72 165.16H205.608V170.272H210.72V165.16Z" fill="white"/>
<path d="M220.944 165.16H215.832V170.272H220.944V165.16Z" fill="white"/>
<path d="M241.392 165.16H236.28V170.272H241.392V165.16Z" fill="white"/>
<path d="M256.728 165.16H251.616V170.272H256.728V165.16Z" fill="white"/>
<path d="M266.952 165.16H261.84V170.272H266.952V165.16Z" fill="white"/>
<path d="M282.288 165.16H277.176V170.272H282.288V165.16Z" fill="white"/>
<path d="M287.4 165.16H282.288V170.272H287.4V165.16Z" fill="white"/>
<path d="M297.624 165.16H292.512V170.272H297.624V165.16Z" fill="white"/>
<path d="M302.736 165.16H297.624V170.272H302.736V165.16Z" fill="white"/>
<path d="M307.848 165.16H302.736V170.272H307.848V165.16Z" fill="white"/>
<path d="M312.96 165.16H307.848V170.272H312.96V165.16Z" fill="white"/>
<path d="M328.296 165.16H323.184V170.272H328.296V165.16Z" fill="white"/>
<path d="M123.816 170.272H118.704V175.384H123.816V170.272Z" fill="white"/>
<path d="M139.152 170.272H134.04V175.384H139.152V170.272Z" fill="white"/>
<path d="M154.488 170.272H149.376V175.384H154.488V170.272Z" fill="white"/>
<path d="M164.712 170.272H159.6V175.384H164.712V170.272Z" fill="white"/>
<path d="M190.272 170.272H185.16V175.384H190.272V170.272Z" fill="white"/>
<path d="M195.384 170.272H190.272V175.384H195.384V170.272Z" fill="white"/>
<path d="M200.496 170.272H195.384V175.384H200.496V170.272Z" fill="white"/>
<path d="M210.72 170.272H205.608V175.384H210.72V170.272Z" fill="white"/>
<path d="M215.832 170.272H210.72V175.384H215.832V170.272Z" fill="white"/>
<path d="M220.944 170.272H215.832V175.384H220.944V170.272Z" fill="white"/>
<path d="M226.056 170.272H220.944V175.384H226.056V170.272Z" fill="white"/>
<path d="M256.728 170.272H251.616V175.384H256.728V170.272Z" fill="white"/>
<path d="M261.84 170.272H256.728V175.384H261.84V170.272Z" fill="white"/>
<path d="M272.064 170.272H266.952V175.384H272.064V170.272Z" fill="white"/>
<path d="M318.072 170.272H312.96V175.384H318.072V170.272Z" fill="white"/>
<path d="M123.816 175.384H118.704V180.496H123.816V175.384Z" fill="white"/>
<path d="M134.04 175.384H128.928V180.496H134.04V175.384Z" fill="white"/>
<path d="M139.152 175.384H134.04V180.496H139.152V175.384Z" fill="white"/>
<path d="M144.264 175.384H139.152V180.496H144.264V175.384Z" fill="white"/>
<path d="M159.6 175.384H154.488V180.496H159.6V175.384Z" fill="white"/>
<path d="M164.712 175.384H159.6V180.496H164.712V175.384Z" fill="white"/>
<path d="M200.496 175.384H195.384V180.496H200.496V175.384Z" fill="white"/>
<path d="M241.392 175.384H236.28V180.496H241.392V175.384Z" fill="white"/>
<path d="M246.504 175.384H241.392V180.496H246.504V175.384Z" fill="white"/>
<path d="M251.616 175.384H246.504V180.496H251.616V175.384Z" fill="white"/>
<path d="M266.952 175.384H261.84V180.496H266.952V175.384Z" fill="white"/>
<path d="M277.176 175.384H272.064V180.496H277.176V175.384Z" fill="white"/>
<path d="M282.288 175.384H277.176V180.496H282.288V175.384Z" fill="white"/>
<path d="M287.4 175.384H282.288V180.496H287.4V175.384Z" fill="white"/>
<path d="M292.512 175.384H287.4V180.496H292.512V175.384Z" fill="white"/>
<path d="M297.624 175.384H292.512V180.496H297.624V175.384Z" fill="white"/>
<path d="M302.736 175.384H297.624V180.496H302.736V175.384Z" fill="white"/>
<path d="M307.848 175.384H302.736V180.496H307.848V175.384Z" fill="white"/>
<path d="M312.96 175.384H307.848V180.496H312.96V175.384Z" fill="white"/>
<path d="M323.184 175.384H318.072V180.496H323.184V175.384Z" fill="white"/>
<path d="M328.296 175.384H323.184V180.496H328.296V175.384Z" fill="white"/>
<path d="M128.928 180.496H123.816V185.608H128.928V180.496Z" fill="white"/>
<path d="M134.04 180.496H128.928V185.608H134.04V180.496Z" fill="white"/>
<path d="M139.152 180.496H134.04V185.608H139.152V180.496Z" fill="white"/>
<path d="M149.376 180.496H144.264V185.608H149.376V180.496Z" fill="white"/>
<path d="M154.488 180.496H149.376V185.608H154.488V180.496Z" fill="white"/>
<path d="M174.936 180.496H169.824V185.608H174.936V180.496Z" fill="white"/>
<path d="M185.16 180.496H180.048V185.608H185.16V180.496Z" fill="white"/>
<path d="M195.384 180.496H190.272V185.608H195.384V180.496Z" fill="white"/>
<path d="M200.496 180.496H195.384V185.608H200.496V180.496Z" fill="white"/>
<path d="M210.72 180.496H205.608V185.608H210.72V180.496Z" fill="white"/>
<path d="M226.056 180.496H220.944V185.608H226.056V180.496Z" fill="white"/>
<path d="M236.28 180.496H231.168V185.608H236.28V180.496Z" fill="white"/>
<path d="M241.392 180.496H236.28V185.608H241.392V180.496Z" fill="white"/>
<path d="M251.616 180.496H246.504V185.608H251.616V180.496Z" fill="white"/>
<path d="M261.84 180.496H256.728V185.608H261.84V180.496Z" fill="white"/>
<path d="M266.952 180.496H261.84V185.608H266.952V180.496Z" fill="white"/>
<path d="M272.064 180.496H266.952V185.608H272.064V180.496Z" fill="white"/>
<path d="M287.4 180.496H282.288V185.608H287.4V180.496Z" fill="white"/>
<path d="M302.736 180.496H297.624V185.608H302.736V180.496Z" fill="white"/>
<path d="M312.96 180.496H307.848V185.608H312.96V180.496Z" fill="white"/>
<path d="M318.072 180.496H312.96V185.608H318.072V180.496Z" fill="white"/>
<path d="M134.04 185.608H128.928V190.72H134.04V185.608Z" fill="white"/>
<path d="M144.264 185.608H139.152V190.72H144.264V185.608Z" fill="white"/>
<path d="M164.712 185.608H159.6V190.72H164.712V185.608Z" fill="white"/>
<path d="M174.936 185.608H169.824V190.72H174.936V185.608Z" fill="white"/>
<path d="M185.16 185.608H180.048V190.72H185.16V185.608Z" fill="white"/>
<path d="M195.384 185.608H190.272V190.72H195.384V185.608Z" fill="white"/>
<path d="M200.496 185.608H195.384V190.72H200.496V185.608Z" fill="white"/>
<path d="M205.608 185.608H200.496V190.72H205.608V185.608Z" fill="white"/>
<path d="M210.72 185.608H205.608V190.72H210.72V185.608Z" fill="white"/>
<path d="M220.944 185.608H215.832V190.72H220.944V185.608Z" fill="white"/>
<path d="M226.056 185.608H220.944V190.72H226.056V185.608Z" fill="white"/>
<path d="M231.168 185.608H226.056V190.72H231.168V185.608Z" fill="white"/>
<path d="M241.392 185.608H236.28V190.72H241.392V185.608Z" fill="white"/>
<path d="M251.616 185.608H246.504V190.72H251.616V185.608Z" fill="white"/>
<path d="M256.728 185.608H251.616V190.72H256.728V185.608Z" fill="white"/>
<path d="M266.952 185.608H261.84V190.72H266.952V185.608Z" fill="white"/>
<path d="M282.288 185.608H277.176V190.72H282.288V185.608Z" fill="white"/>
<path d="M287.4 185.608H282.288V190.72H287.4V185.608Z" fill="white"/>
<path d="M297.624 185.608H292.512V190.72H297.624V185.608Z" fill="white"/>
<path d="M302.736 185.608H297.624V190.72H302.736V185.608Z" fill="white"/>
<path d="M307.848 185.608H302.736V190.72H307.848V185.608Z" fill="white"/>
<path d="M312.96 185.608H307.848V190.72H312.96V185.608Z" fill="white"/>
<path d="M328.296 185.608H323.184V190.72H328.296V185.608Z" fill="white"/>
<path d="M123.816 190.72H118.704V195.832H123.816V190.72Z" fill="white"/>
<path d="M128.928 190.72H123.816V195.832H128.928V190.72Z" fill="white"/>
<path d="M149.376 190.72H144.264V195.832H149.376V190.72Z" fill="white"/>
<path d="M154.488 190.72H149.376V195.832H154.488V190.72Z" fill="white"/>
<path d="M159.6 190.72H154.488V195.832H159.6V190.72Z" fill="white"/>
<path d="M164.712 190.72H159.6V195.832H164.712V190.72Z" fill="white"/>
<path d="M174.936 190.72H169.824V195.832H174.936V190.72Z" fill="white"/>
<path d="M185.16 190.72H180.048V195.832H185.16V190.72Z" fill="white"/>
<path d="M190.272 190.72H185.16V195.832H190.272V190.72Z" fill="white"/>
<path d="M205.608 190.72H200.496V195.832H205.608V190.72Z" fill="white"/>
<path d="M210.72 190.72H205.608V195.832H210.72V190.72Z" fill="white"/>
<path d="M215.832 190.72H210.72V195.832H215.832V190.72Z" fill="white"/>
<path d="M226.056 190.72H220.944V195.832H226.056V190.72Z" fill="white"/>
<path d="M231.168 190.72H226.056V195.832H231.168V190.72Z" fill="white"/>
<path d="M236.28 190.72H231.168V195.832H236.28V190.72Z" fill="white"/>
<path d="M241.392 190.72H236.28V195.832H241.392V190.72Z" fill="white"/>
<path d="M246.504 190.72H241.392V195.832H246.504V190.72Z" fill="white"/>
<path d="M261.84 190.72H256.728V195.832H261.84V190.72Z" fill="white"/>
<path d="M272.064 190.72H266.952V195.832H272.064V190.72Z" fill="white"/>
<path d="M318.072 190.72H312.96V195.832H318.072V190.72Z" fill="white"/>
<path d="M128.928 195.832H123.816V200.944H128.928V195.832Z" fill="white"/>
<path d="M134.04 195.832H128.928V200.944H134.04V195.832Z" fill="white"/>
<path d="M139.152 195.832H134.04V200.944H139.152V195.832Z" fill="white"/>
<path d="M144.264 195.832H139.152V200.944H144.264V195.832Z" fill="white"/>
<path d="M149.376 195.832H144.264V200.944H149.376V195.832Z" fill="white"/>
<path d="M164.712 195.832H159.6V200.944H164.712V195.832Z" fill="white"/>
<path d="M169.824 195.832H164.712V200.944H169.824V195.832Z" fill="white"/>
<path d="M190.272 195.832H185.16V200.944H190.272V195.832Z" fill="white"/>
<path d="M195.384 195.832H190.272V200.944H195.384V195.832Z" fill="white"/>
<path d="M200.496 195.832H195.384V200.944H200.496V195.832Z" fill="white"/>
<path d="M220.944 195.832H215.832V200.944H220.944V195.832Z" fill="white"/>
<path d="M266.952 195.832H261.84V200.944H266.952V195.832Z" fill="white"/>
<path d="M277.176 195.832H272.064V200.944H277.176V195.832Z" fill="white"/>
<path d="M282.288 195.832H277.176V200.944H282.288V195.832Z" fill="white"/>
<path d="M287.4 195.832H282.288V200.944H287.4V195.832Z" fill="white"/>
<path d="M292.512 195.832H287.4V200.944H292.512V195.832Z" fill="white"/>
<path d="M297.624 195.832H292.512V200.944H297.624V195.832Z" fill="white"/>
<path d="M302.736 195.832H297.624V200.944H302.736V195.832Z" fill="white"/>
<path d="M307.848 195.832H302.736V200.944H307.848V195.832Z" fill="white"/>
<path d="M312.96 195.832H307.848V200.944H312.96V195.832Z" fill="white"/>
<path d="M323.184 195.832H318.072V200.944H323.184V195.832Z" fill="white"/>
<path d="M328.296 195.832H323.184V200.944H328.296V195.832Z" fill="white"/>
<path d="M144.264 200.944H139.152V206.056H144.264V200.944Z" fill="white"/>
<path d="M149.376 200.944H144.264V206.056H149.376V200.944Z" fill="white"/>
<path d="M154.488 200.944H149.376V206.056H154.488V200.944Z" fill="white"/>
<path d="M164.712 200.944H159.6V206.056H164.712V200.944Z" fill="white"/>
<path d="M174.936 200.944H169.824V206.056H174.936V200.944Z" fill="white"/>
<path d="M185.16 200.944H180.048V206.056H185.16V200.944Z" fill="white"/>
<path d="M210.72 200.944H205.608V206.056H210.72V200.944Z" fill="white"/>
<path d="M215.832 200.944H210.72V206.056H215.832V200.944Z" fill="white"/>
<path d="M220.944 200.944H215.832V206.056H220.944V200.944Z" fill="white"/>
<path d="M226.056 200.944H220.944V206.056H226.056V200.944Z" fill="white"/>
<path d="M236.28 200.944H231.168V206.056H236.28V200.944Z" fill="white"/>
<path d="M251.616 200.944H246.504V206.056H251.616V200.944Z" fill="white"/>
<path d="M261.84 200.944H256.728V206.056H261.84V200.944Z" fill="white"/>
<path d="M266.952 200.944H261.84V206.056H266.952V200.944Z" fill="white"/>
<path d="M272.064 200.944H266.952V206.056H272.064V200.944Z" fill="white"/>
<path d="M287.4 200.944H282.288V206.056H287.4V200.944Z" fill="white"/>
<path d="M302.736 200.944H297.624V206.056H302.736V200.944Z" fill="white"/>
<path d="M312.96 200.944H307.848V206.056H312.96V200.944Z" fill="white"/>
<path d="M318.072 200.944H312.96V206.056H318.072V200.944Z" fill="white"/>
<path d="M128.928 206.056H123.816V211.168H128.928V206.056Z" fill="white"/>
<path d="M134.04 206.056H128.928V211.168H134.04V206.056Z" fill="white"/>
<path d="M144.264 206.056H139.152V211.168H144.264V206.056Z" fill="white"/>
<path d="M169.824 206.056H164.712V211.168H169.824V206.056Z" fill="white"/>
<path d="M185.16 206.056H180.048V211.168H185.16V206.056Z" fill="white"/>
<path d="M190.272 206.056H185.16V211.168H190.272V206.056Z" fill="white"/>
<path d="M200.496 206.056H195.384V211.168H200.496V206.056Z" fill="white"/>
<path d="M205.608 206.056H200.496V211.168H205.608V206.056Z" fill="white"/>
<path d="M215.832 206.056H210.72V211.168H215.832V206.056Z" fill="white"/>
<path d="M220.944 206.056H215.832V211.168H220.944V206.056Z" fill="white"/>
<path d="M226.056 206.056H220.944V211.168H226.056V206.056Z" fill="white"/>
<path d="M231.168 206.056H226.056V211.168H231.168V206.056Z" fill="white"/>
<path d="M236.28 206.056H231.168V211.168H236.28V206.056Z" fill="white"/>
<path d="M241.392 206.056H236.28V211.168H241.392V206.056Z" fill="white"/>
<path d="M251.616 206.056H246.504V211.168H251.616V206.056Z" fill="white"/>
<path d="M266.952 206.056H261.84V211.168H266.952V206.056Z" fill="white"/>
<path d="M282.288 206.056H277.176V211.168H282.288V206.056Z" fill="white"/>
<path d="M287.4 206.056H282.288V211.168H287.4V206.056Z" fill="white"/>
<path d="M297.624 206.056H292.512V211.168H297.624V206.056Z" fill="white"/>
<path d="M302.736 206.056H297.624V211.168H302.736V206.056Z" fill="white"/>
<path d="M307.848 206.056H302.736V211.168H307.848V206.056Z" fill="white"/>
<path d="M312.96 206.056H307.848V211.168H312.96V206.056Z" fill="white"/>
<path d="M323.184 206.056H318.072V211.168H323.184V206.056Z" fill="white"/>
<path d="M123.816 211.168H118.704V216.28H123.816V211.168Z" fill="white"/>
<path d="M128.928 211.168H123.816V216.28H128.928V211.168Z" fill="white"/>
<path d="M149.376 211.168H144.264V216.28H149.376V211.168Z" fill="white"/>
<path d="M154.488 211.168H149.376V216.28H154.488V211.168Z" fill="white"/>
<path d="M164.712 211.168H159.6V216.28H164.712V211.168Z" fill="white"/>
<path d="M169.824 211.168H164.712V216.28H169.824V211.168Z" fill="white"/>
<path d="M185.16 211.168H180.048V216.28H185.16V211.168Z" fill="white"/>
<path d="M205.608 211.168H200.496V216.28H205.608V211.168Z" fill="white"/>
<path d="M226.056 211.168H220.944V216.28H226.056V211.168Z" fill="white"/>
<path d="M241.392 211.168H236.28V216.28H241.392V211.168Z" fill="white"/>
<path d="M246.504 211.168H241.392V216.28H246.504V211.168Z" fill="white"/>
<path d="M256.728 211.168H251.616V216.28H256.728V211.168Z" fill="white"/>
<path d="M261.84 211.168H256.728V216.28H261.84V211.168Z" fill="white"/>
<path d="M272.064 211.168H266.952V216.28H272.064V211.168Z" fill="white"/>
<path d="M318.072 211.168H312.96V216.28H318.072V211.168Z" fill="white"/>
<path d="M128.928 216.28H123.816V221.392H128.928V216.28Z" fill="white"/>
<path d="M139.152 216.28H134.04V221.392H139.152V216.28Z" fill="white"/>
<path d="M144.264 216.28H139.152V221.392H144.264V216.28Z" fill="white"/>
<path d="M149.376 216.28H144.264V221.392H149.376V216.28Z" fill="white"/>
<path d="M159.6 216.28H154.488V221.392H159.6V216.28Z" fill="white"/>
<path d="M164.712 216.28H159.6V221.392H164.712V216.28Z" fill="white"/>
<path d="M169.824 216.28H164.712V221.392H169.824V216.28Z" fill="white"/>
<path d="M190.272 216.28H185.16V221.392H190.272V216.28Z" fill="white"/>
<path d="M200.496 216.28H195.384V221.392H200.496V216.28Z" fill="white"/>
<path d="M220.944 216.28H215.832V221.392H220.944V216.28Z" fill="white"/>
<path d="M231.168 216.28H226.056V221.392H231.168V216.28Z" fill="white"/>
<path d="M251.616 216.28H246.504V221.392H251.616V216.28Z" fill="white"/>
<path d="M266.952 216.28H261.84V221.392H266.952V216.28Z" fill="white"/>
<path d="M277.176 216.28H272.064V221.392H277.176V216.28Z" fill="white"/>
<path d="M282.288 216.28H277.176V221.392H282.288V216.28Z" fill="white"/>
<path d="M287.4 216.28H282.288V221.392H287.4V216.28Z" fill="white"/>
<path d="M292.512 216.28H287.4V221.392H292.512V216.28Z" fill="white"/>
<path d="M297.624 216.28H292.512V221.392H297.624V216.28Z" fill="white"/>
<path d="M302.736 216.28H297.624V221.392H302.736V216.28Z" fill="white"/>
<path d="M307.848 216.28H302.736V221.392H307.848V216.28Z" fill="white"/>
<path d="M312.96 216.28H307.848V221.392H312.96V216.28Z" fill="white"/>
<path d="M323.184 216.28H318.072V221.392H323.184V216.28Z" fill="white"/>
<path d="M328.296 216.28H323.184V221.392H328.296V216.28Z" fill="white"/>
<path d="M139.152 221.392H134.04V226.504H139.152V221.392Z" fill="white"/>
<path d="M144.264 221.392H139.152V226.504H144.264V221.392Z" fill="white"/>
<path d="M149.376 221.392H144.264V226.504H149.376V221.392Z" fill="white"/>
<path d="M154.488 221.392H149.376V226.504H154.488V221.392Z" fill="white"/>
<path d="M159.6 221.392H154.488V226.504H159.6V221.392Z" fill="white"/>
<path d="M164.712 221.392H159.6V226.504H164.712V221.392Z" fill="white"/>
<path d="M195.384 221.392H190.272V226.504H195.384V221.392Z" fill="white"/>
<path d="M210.72 221.392H205.608V226.504H210.72V221.392Z" fill="white"/>
<path d="M220.944 221.392H215.832V226.504H220.944V221.392Z" fill="white"/>
<path d="M236.28 221.392H231.168V226.504H236.28V221.392Z" fill="white"/>
<path d="M251.616 221.392H246.504V226.504H251.616V221.392Z" fill="white"/>
<path d="M256.728 221.392H251.616V226.504H256.728V221.392Z" fill="white"/>
<path d="M261.84 221.392H256.728V226.504H261.84V221.392Z" fill="white"/>
<path d="M266.952 221.392H261.84V226.504H266.952V221.392Z" fill="white"/>
<path d="M272.064 221.392H266.952V226.504H272.064V221.392Z" fill="white"/>
<path d="M287.4 221.392H282.288V226.504H287.4V221.392Z" fill="white"/>
<path d="M302.736 221.392H297.624V226.504H302.736V221.392Z" fill="white"/>
<path d="M312.96 221.392H307.848V226.504H312.96V221.392Z" fill="white"/>
<path d="M318.072 221.392H312.96V226.504H318.072V221.392Z" fill="white"/>
<path d="M323.184 221.392H318.072V226.504H323.184V221.392Z" fill="white"/>
<path d="M328.296 221.392H323.184V226.504H328.296V221.392Z" fill="white"/>
<path d="M123.816 226.504H118.704V231.616H123.816V226.504Z" fill="white"/>
<path d="M128.928 226.504H123.816V231.616H128.928V226.504Z" fill="white"/>
<path d="M134.04 226.504H128.928V231.616H134.04V226.504Z" fill="white"/>
<path d="M159.6 226.504H154.488V231.616H159.6V226.504Z" fill="white"/>
<path d="M190.272 226.504H185.16V231.616H190.272V226.504Z" fill="white"/>
<path d="M195.384 226.504H190.272V231.616H195.384V226.504Z" fill="white"/>
<path d="M200.496 226.504H195.384V231.616H200.496V226.504Z" fill="white"/>
<path d="M205.608 226.504H200.496V231.616H205.608V226.504Z" fill="white"/>
<path d="M220.944 226.504H215.832V231.616H220.944V226.504Z" fill="white"/>
<path d="M231.168 226.504H226.056V231.616H231.168V226.504Z" fill="white"/>
<path d="M236.28 226.504H231.168V231.616H236.28V226.504Z" fill="white"/>
<path d="M241.392 226.504H236.28V231.616H241.392V226.504Z" fill="white"/>
<path d="M246.504 226.504H241.392V231.616H246.504V226.504Z" fill="white"/>
<path d="M266.952 226.504H261.84V231.616H266.952V226.504Z" fill="white"/>
<path d="M282.288 226.504H277.176V231.616H282.288V226.504Z" fill="white"/>
<path d="M287.4 226.504H282.288V231.616H287.4V226.504Z" fill="white"/>
<path d="M297.624 226.504H292.512V231.616H297.624V226.504Z" fill="white"/>
<path d="M302.736 226.504H297.624V231.616H302.736V226.504Z" fill="white"/>
<path d="M307.848 226.504H302.736V231.616H307.848V226.504Z" fill="white"/>
<path d="M312.96 226.504H307.848V231.616H312.96V226.504Z" fill="white"/>
<path d="M328.296 226.504H323.184V231.616H328.296V226.504Z" fill="white"/>
<path d="M134.04 231.616H128.928V236.728H134.04V231.616Z" fill="white"/>
<path d="M144.264 231.616H139.152V236.728H144.264V231.616Z" fill="white"/>
<path d="M149.376 231.616H144.264V236.728H149.376V231.616Z" fill="white"/>
<path d="M154.488 231.616H149.376V236.728H154.488V231.616Z" fill="white"/>
<path d="M164.712 231.616H159.6V236.728H164.712V231.616Z" fill="white"/>
<path d="M169.824 231.616H164.712V236.728H169.824V231.616Z" fill="white"/>
<path d="M180.048 231.616H174.936V236.728H180.048V231.616Z" fill="white"/>
<path d="M185.16 231.616H180.048V236.728H185.16V231.616Z" fill="white"/>
<path d="M190.272 231.616H185.16V236.728H190.272V231.616Z" fill="white"/>
<path d="M195.384 231.616H190.272V236.728H195.384V231.616Z" fill="white"/>
<path d="M200.496 231.616H195.384V236.728H200.496V231.616Z" fill="white"/>
<path d="M205.608 231.616H200.496V236.728H205.608V231.616Z" fill="white"/>
<path d="M220.944 231.616H215.832V236.728H220.944V231.616Z" fill="white"/>
<path d="M226.056 231.616H220.944V236.728H226.056V231.616Z" fill="white"/>
<path d="M231.168 231.616H226.056V236.728H231.168V231.616Z" fill="white"/>
<path d="M241.392 231.616H236.28V236.728H241.392V231.616Z" fill="white"/>
<path d="M246.504 231.616H241.392V236.728H246.504V231.616Z" fill="white"/>
<path d="M251.616 231.616H246.504V236.728H251.616V231.616Z" fill="white"/>
<path d="M256.728 231.616H251.616V236.728H256.728V231.616Z" fill="white"/>
<path d="M261.84 231.616H256.728V236.728H261.84V231.616Z" fill="white"/>
<path d="M272.064 231.616H266.952V236.728H272.064V231.616Z" fill="white"/>
<path d="M318.072 231.616H312.96V236.728H318.072V231.616Z" fill="white"/>
<path d="M134.04 236.728H128.928V241.84H134.04V236.728Z" fill="white"/>
<path d="M139.152 236.728H134.04V241.84H139.152V236.728Z" fill="white"/>
<path d="M149.376 236.728H144.264V241.84H149.376V236.728Z" fill="white"/>
<path d="M159.6 236.728H154.488V241.84H159.6V236.728Z" fill="white"/>
<path d="M169.824 236.728H164.712V241.84H169.824V236.728Z" fill="white"/>
<path d="M174.936 236.728H169.824V241.84H174.936V236.728Z" fill="white"/>
<path d="M185.16 236.728H180.048V241.84H185.16V236.728Z" fill="white"/>
<path d="M190.272 236.728H185.16V241.84H190.272V236.728Z" fill="white"/>
<path d="M215.832 236.728H210.72V241.84H215.832V236.728Z" fill="white"/>
<path d="M220.944 236.728H215.832V241.84H220.944V236.728Z" fill="white"/>
<path d="M236.28 236.728H231.168V241.84H236.28V236.728Z" fill="white"/>
<path d="M251.616 236.728H246.504V241.84H251.616V236.728Z" fill="white"/>
<path d="M256.728 236.728H251.616V241.84H256.728V236.728Z" fill="white"/>
<path d="M266.952 236.728H261.84V241.84H266.952V236.728Z" fill="white"/>
<path d="M277.176 236.728H272.064V241.84H277.176V236.728Z" fill="white"/>
<path d="M282.288 236.728H277.176V241.84H282.288V236.728Z" fill="white"/>
<path d="M287.4 236.728H282.288V241.84H287.4V236.728Z" fill="white"/>
<path d="M292.512 236.728H287.4V241.84H292.512V236.728Z" fill="white"/>
<path d="M297.624 236.728H292.512V241.84H297.624V236.728Z" fill="white"/>
<path d="M302.736 236.728H297.624V241.84H302.736V236.728Z" fill="white"/>
<path d="M307.848 236.728H302.736V241.84H307.848V236.728Z" fill="white"/>
<path d="M312.96 236.728H307.848V241.84H312.96V236.728Z" fill="white"/>
<path d="M323.184 236.728H318.072V241.84H323.184V236.728Z" fill="white"/>
<path d="M328.296 236.728H323.184V241.84H328.296V236.728Z" fill="white"/>
<path d="M123.816 241.84H118.704V246.952H123.816V241.84Z" fill="white"/>
<path d="M139.152 241.84H134.04V246.952H139.152V241.84Z" fill="white"/>
<path d="M154.488 241.84H149.376V246.952H154.488V241.84Z" fill="white"/>
<path d="M164.712 241.84H159.6V246.952H164.712V241.84Z" fill="white"/>
<path d="M169.824 241.84H164.712V246.952H169.824V241.84Z" fill="white"/>
<path d="M180.048 241.84H174.936V246.952H180.048V241.84Z" fill="white"/>
<path d="M190.272 241.84H185.16V246.952H190.272V241.84Z" fill="white"/>
<path d="M200.496 241.84H195.384V246.952H200.496V241.84Z" fill="white"/>
<path d="M215.832 241.84H210.72V246.952H215.832V241.84Z" fill="white"/>
<path d="M231.168 241.84H226.056V246.952H231.168V241.84Z" fill="white"/>
<path d="M241.392 241.84H236.28V246.952H241.392V241.84Z" fill="white"/>
<path d="M246.504 241.84H241.392V246.952H246.504V241.84Z" fill="white"/>
<path d="M251.616 241.84H246.504V246.952H251.616V241.84Z" fill="white"/>
<path d="M261.84 241.84H256.728V246.952H261.84V241.84Z" fill="white"/>
<path d="M266.952 241.84H261.84V246.952H266.952V241.84Z" fill="white"/>
<path d="M272.064 241.84H266.952V246.952H272.064V241.84Z" fill="white"/>
<path d="M287.4 241.84H282.288V246.952H287.4V241.84Z" fill="white"/>
<path d="M302.736 241.84H297.624V246.952H302.736V241.84Z" fill="white"/>
<path d="M123.816 246.952H118.704V252.064H123.816V246.952Z" fill="white"/>
<path d="M134.04 246.952H128.928V252.064H134.04V246.952Z" fill="white"/>
<path d="M149.376 246.952H144.264V252.064H149.376V246.952Z" fill="white"/>
<path d="M159.6 246.952H154.488V252.064H159.6V246.952Z" fill="white"/>
<path d="M180.048 246.952H174.936V252.064H180.048V246.952Z" fill="white"/>
<path d="M190.272 246.952H185.16V252.064H190.272V246.952Z" fill="white"/>
<path d="M220.944 246.952H215.832V252.064H220.944V246.952Z" fill="white"/>
<path d="M231.168 246.952H226.056V252.064H231.168V246.952Z" fill="white"/>
<path d="M246.504 246.952H241.392V252.064H246.504V246.952Z" fill="white"/>
<path d="M266.952 246.952H261.84V252.064H266.952V246.952Z" fill="white"/>
<path d="M282.288 246.952H277.176V252.064H282.288V246.952Z" fill="white"/>
<path d="M287.4 246.952H282.288V252.064H287.4V246.952Z" fill="white"/>
<path d="M297.624 246.952H292.512V252.064H297.624V246.952Z" fill="white"/>
<path d="M302.736 246.952H297.624V252.064H302.736V246.952Z" fill="white"/>
<path d="M307.848 246.952H302.736V252.064H307.848V246.952Z" fill="white"/>
<path d="M312.96 246.952H307.848V252.064H312.96V246.952Z" fill="white"/>
<path d="M328.296 246.952H323.184V252.064H328.296V246.952Z" fill="white"/>
<path d="M123.816 252.064H118.704V257.176H123.816V252.064Z" fill="white"/>
<path d="M134.04 252.064H128.928V257.176H134.04V252.064Z" fill="white"/>
<path d="M154.488 252.064H149.376V257.176H154.488V252.064Z" fill="white"/>
<path d="M164.712 252.064H159.6V257.176H164.712V252.064Z" fill="white"/>
<path d="M169.824 252.064H164.712V257.176H169.824V252.064Z" fill="white"/>
<path d="M190.272 252.064H185.16V257.176H190.272V252.064Z" fill="white"/>
<path d="M195.384 252.064H190.272V257.176H195.384V252.064Z" fill="white"/>
<path d="M200.496 252.064H195.384V257.176H200.496V252.064Z" fill="white"/>
<path d="M205.608 252.064H200.496V257.176H205.608V252.064Z" fill="white"/>
<path d="M220.944 252.064H215.832V257.176H220.944V252.064Z" fill="white"/>
<path d="M231.168 252.064H226.056V257.176H231.168V252.064Z" fill="white"/>
<path d="M251.616 252.064H246.504V257.176H251.616V252.064Z" fill="white"/>
<path d="M256.728 252.064H251.616V257.176H256.728V252.064Z" fill="white"/>
<path d="M261.84 252.064H256.728V257.176H261.84V252.064Z" fill="white"/>
<path d="M272.064 252.064H266.952V257.176H272.064V252.064Z" fill="white"/>
<path d="M318.072 252.064H312.96V257.176H318.072V252.064Z" fill="white"/>
<path d="M123.816 257.176H118.704V262.288H123.816V257.176Z" fill="white"/>
<path d="M134.04 257.176H128.928V262.288H134.04V257.176Z" fill="white"/>
<path d="M139.152 257.176H134.04V262.288H139.152V257.176Z" fill="white"/>
<path d="M144.264 257.176H139.152V262.288H144.264V257.176Z" fill="white"/>
<path d="M149.376 257.176H144.264V262.288H149.376V257.176Z" fill="white"/>
<path d="M159.6 257.176H154.488V262.288H159.6V257.176Z" fill="white"/>
<path d="M169.824 257.176H164.712V262.288H169.824V257.176Z" fill="white"/>
<path d="M174.936 257.176H169.824V262.288H174.936V257.176Z" fill="white"/>
<path d="M185.16 257.176H180.048V262.288H185.16V257.176Z" fill="white"/>
<path d="M190.272 257.176H185.16V262.288H190.272V257.176Z" fill="white"/>
<path d="M215.832 257.176H210.72V262.288H215.832V257.176Z" fill="white"/>
<path d="M220.944 257.176H215.832V262.288H220.944V257.176Z" fill="white"/>
<path d="M236.28 257.176H231.168V262.288H236.28V257.176Z" fill="white"/>
<path d="M246.504 257.176H241.392V262.288H246.504V257.176Z" fill="white"/>
<path d="M251.616 257.176H246.504V262.288H251.616V257.176Z" fill="white"/>
<path d="M256.728 257.176H251.616V262.288H256.728V257.176Z" fill="white"/>
<path d="M266.952 257.176H261.84V262.288H266.952V257.176Z" fill="white"/>
<path d="M277.176 257.176H272.064V262.288H277.176V257.176Z" fill="white"/>
<path d="M282.288 257.176H277.176V262.288H282.288V257.176Z" fill="white"/>
<path d="M287.4 257.176H282.288V262.288H287.4V257.176Z" fill="white"/>
<path d="M292.512 257.176H287.4V262.288H292.512V257.176Z" fill="white"/>
<path d="M297.624 257.176H292.512V262.288H297.624V257.176Z" fill="white"/>
<path d="M302.736 257.176H297.624V262.288H302.736V257.176Z" fill="white"/>
<path d="M307.848 257.176H302.736V262.288H307.848V257.176Z" fill="white"/>
<path d="M312.96 257.176H307.848V262.288H312.96V257.176Z" fill="white"/>
<path d="M323.184 257.176H318.072V262.288H323.184V257.176Z" fill="white"/>
<path d="M328.296 257.176H323.184V262.288H328.296V257.176Z" fill="white"/>
<path d="M123.816 262.288H118.704V267.4H123.816V262.288Z" fill="white"/>
<path d="M144.264 262.288H139.152V267.4H144.264V262.288Z" fill="white"/>
<path d="M154.488 262.288H149.376V267.4H154.488V262.288Z" fill="white"/>
<path d="M164.712 262.288H159.6V267.4H164.712V262.288Z" fill="white"/>
<path d="M169.824 262.288H164.712V267.4H169.824V262.288Z" fill="white"/>
<path d="M180.048 262.288H174.936V267.4H180.048V262.288Z" fill="white"/>
<path d="M190.272 262.288H185.16V267.4H190.272V262.288Z" fill="white"/>
<path d="M205.608 262.288H200.496V267.4H205.608V262.288Z" fill="white"/>
<path d="M215.832 262.288H210.72V267.4H215.832V262.288Z" fill="white"/>
<path d="M231.168 262.288H226.056V267.4H231.168V262.288Z" fill="white"/>
<path d="M241.392 262.288H236.28V267.4H241.392V262.288Z" fill="white"/>
<path d="M246.504 262.288H241.392V267.4H246.504V262.288Z" fill="white"/>
<path d="M251.616 262.288H246.504V267.4H251.616V262.288Z" fill="white"/>
<path d="M261.84 262.288H256.728V267.4H261.84V262.288Z" fill="white"/>
<path d="M266.952 262.288H261.84V267.4H266.952V262.288Z" fill="white"/>
<path d="M272.064 262.288H266.952V267.4H272.064V262.288Z" fill="white"/>
<path d="M287.4 262.288H282.288V267.4H287.4V262.288Z" fill="white"/>
<path d="M292.512 262.288H287.4V267.4H292.512V262.288Z" fill="white"/>
<path d="M297.624 262.288H292.512V267.4H297.624V262.288Z" fill="white"/>
<path d="M302.736 262.288H297.624V267.4H302.736V262.288Z" fill="white"/>
<path d="M307.848 262.288H302.736V267.4H307.848V262.288Z" fill="white"/>
<path d="M312.96 262.288H307.848V267.4H312.96V262.288Z" fill="white"/>
<path d="M318.072 262.288H312.96V267.4H318.072V262.288Z" fill="white"/>
<path d="M164.712 267.4H159.6V272.512H164.712V267.4Z" fill="white"/>
<path d="M190.272 267.4H185.16V272.512H190.272V267.4Z" fill="white"/>
<path d="M220.944 267.4H215.832V272.512H220.944V267.4Z" fill="white"/>
<path d="M226.056 267.4H220.944V272.512H226.056V267.4Z" fill="white"/>
<path d="M231.168 267.4H226.056V272.512H231.168V267.4Z" fill="white"/>
<path d="M246.504 267.4H241.392V272.512H246.504V267.4Z" fill="white"/>
<path d="M266.952 267.4H261.84V272.512H266.952V267.4Z" fill="white"/>
<path d="M282.288 267.4H277.176V272.512H282.288V267.4Z" fill="white"/>
<path d="M287.4 267.4H282.288V272.512H287.4V267.4Z" fill="white"/>
<path d="M307.848 267.4H302.736V272.512H307.848V267.4Z" fill="white"/>
<path d="M312.96 267.4H307.848V272.512H312.96V267.4Z" fill="white"/>
<path d="M328.296 267.4H323.184V272.512H328.296V267.4Z" fill="white"/>
<path d="M123.816 272.512H118.704V277.624H123.816V272.512Z" fill="white"/>
<path d="M128.928 272.512H123.816V277.624H128.928V272.512Z" fill="white"/>
<path d="M134.04 272.512H128.928V277.624H134.04V272.512Z" fill="white"/>
<path d="M139.152 272.512H134.04V277.624H139.152V272.512Z" fill="white"/>
<path d="M144.264 272.512H139.152V277.624H144.264V272.512Z" fill="white"/>
<path d="M149.376 272.512H144.264V277.624H149.376V272.512Z" fill="white"/>
<path d="M154.488 272.512H149.376V277.624H154.488V272.512Z" fill="white"/>
<path d="M169.824 272.512H164.712V277.624H169.824V272.512Z" fill="white"/>
<path d="M185.16 272.512H180.048V277.624H185.16V272.512Z" fill="white"/>
<path d="M190.272 272.512H185.16V277.624H190.272V272.512Z" fill="white"/>
<path d="M226.056 272.512H220.944V277.624H226.056V272.512Z" fill="white"/>
<path d="M261.84 272.512H256.728V277.624H261.84V272.512Z" fill="white"/>
<path d="M272.064 272.512H266.952V277.624H272.064V272.512Z" fill="white"/>
<path d="M282.288 272.512H277.176V277.624H282.288V272.512Z" fill="white"/>
<path d="M287.4 272.512H282.288V277.624H287.4V272.512Z" fill="white"/>
<path d="M297.624 272.512H292.512V277.624H297.624V272.512Z" fill="white"/>
<path d="M307.848 272.512H302.736V277.624H307.848V272.512Z" fill="white"/>
<path d="M318.072 272.512H312.96V277.624H318.072V272.512Z" fill="white"/>
<path d="M123.816 277.624H118.704V282.736H123.816V277.624Z" fill="white"/>
<path d="M154.488 277.624H149.376V282.736H154.488V277.624Z" fill="white"/>
<path d="M169.824 277.624H164.712V282.736H169.824V277.624Z" fill="white"/>
<path d="M174.936 277.624H169.824V282.736H174.936V277.624Z" fill="white"/>
<path d="M185.16 277.624H180.048V282.736H185.16V277.624Z" fill="white"/>
<path d="M195.384 277.624H190.272V282.736H195.384V277.624Z" fill="white"/>
<path d="M200.496 277.624H195.384V282.736H200.496V277.624Z" fill="white"/>
<path d="M215.832 277.624H210.72V282.736H215.832V277.624Z" fill="white"/>
<path d="M220.944 277.624H215.832V282.736H220.944V277.624Z" fill="white"/>
<path d="M231.168 277.624H226.056V282.736H231.168V277.624Z" fill="white"/>
<path d="M236.28 277.624H231.168V282.736H236.28V277.624Z" fill="white"/>
<path d="M241.392 277.624H236.28V282.736H241.392V277.624Z" fill="white"/>
<path d="M246.504 277.624H241.392V282.736H246.504V277.624Z" fill="white"/>
<path d="M266.952 277.624H261.84V282.736H266.952V277.624Z" fill="white"/>
<path d="M277.176 277.624H272.064V282.736H277.176V277.624Z" fill="white"/>
<path d="M282.288 277.624H277.176V282.736H282.288V277.624Z" fill="white"/>
<path d="M287.4 277.624H282.288V282.736H287.4V277.624Z" fill="white"/>
<path d="M307.848 277.624H302.736V282.736H307.848V277.624Z" fill="white"/>
<path d="M312.96 277.624H307.848V282.736H312.96V277.624Z" fill="white"/>
<path d="M323.184 277.624H318.072V282.736H323.184V277.624Z" fill="white"/>
<path d="M328.296 277.624H323.184V282.736H328.296V277.624Z" fill="white"/>
<path d="M123.816 282.736H118.704V287.848H123.816V282.736Z" fill="white"/>
<path d="M134.04 282.736H128.928V287.848H134.04V282.736Z" fill="white"/>
<path d="M139.152 282.736H134.04V287.848H139.152V282.736Z" fill="white"/>
<path d="M144.264 282.736H139.152V287.848H144.264V282.736Z" fill="white"/>
<path d="M154.488 282.736H149.376V287.848H154.488V282.736Z" fill="white"/>
<path d="M164.712 282.736H159.6V287.848H164.712V282.736Z" fill="white"/>
<path d="M169.824 282.736H164.712V287.848H169.824V282.736Z" fill="white"/>
<path d="M174.936 282.736H169.824V287.848H174.936V282.736Z" fill="white"/>
<path d="M190.272 282.736H185.16V287.848H190.272V282.736Z" fill="white"/>
<path d="M195.384 282.736H190.272V287.848H195.384V282.736Z" fill="white"/>
<path d="M200.496 282.736H195.384V287.848H200.496V282.736Z" fill="white"/>
<path d="M205.608 282.736H200.496V287.848H205.608V282.736Z" fill="white"/>
<path d="M220.944 282.736H215.832V287.848H220.944V282.736Z" fill="white"/>
<path d="M246.504 282.736H241.392V287.848H246.504V282.736Z" fill="white"/>
<path d="M251.616 282.736H246.504V287.848H251.616V282.736Z" fill="white"/>
<path d="M261.84 282.736H256.728V287.848H261.84V282.736Z" fill="white"/>
<path d="M266.952 282.736H261.84V287.848H266.952V282.736Z" fill="white"/>
<path d="M272.064 282.736H266.952V287.848H272.064V282.736Z" fill="white"/>
<path d="M287.4 282.736H282.288V287.848H287.4V282.736Z" fill="white"/>
<path d="M292.512 282.736H287.4V287.848H292.512V282.736Z" fill="white"/>
<path d="M297.624 282.736H292.512V287.848H297.624V282.736Z" fill="white"/>
<path d="M302.736 282.736H297.624V287.848H302.736V282.736Z" fill="white"/>
<path d="M307.848 282.736H302.736V287.848H307.848V282.736Z" fill="white"/>
<path d="M312.96 282.736H307.848V287.848H312.96V282.736Z" fill="white"/>
<path d="M318.072 282.736H312.96V287.848H318.072V282.736Z" fill="white"/>
<path d="M123.816 287.848H118.704V292.96H123.816V287.848Z" fill="white"/>
<path d="M134.04 287.848H128.928V292.96H134.04V287.848Z" fill="white"/>
<path d="M139.152 287.848H134.04V292.96H139.152V287.848Z" fill="white"/>
<path d="M144.264 287.848H139.152V292.96H144.264V287.848Z" fill="white"/>
<path d="M154.488 287.848H149.376V292.96H154.488V287.848Z" fill="white"/>
<path d="M164.712 287.848H159.6V292.96H164.712V287.848Z" fill="white"/>
<path d="M174.936 287.848H169.824V292.96H174.936V287.848Z" fill="white"/>
<path d="M210.72 287.848H205.608V292.96H210.72V287.848Z" fill="white"/>
<path d="M220.944 287.848H215.832V292.96H220.944V287.848Z" fill="white"/>
<path d="M226.056 287.848H220.944V292.96H226.056V287.848Z" fill="white"/>
<path d="M236.28 287.848H231.168V292.96H236.28V287.848Z" fill="white"/>
<path d="M246.504 287.848H241.392V292.96H246.504V287.848Z" fill="white"/>
<path d="M251.616 287.848H246.504V292.96H251.616V287.848Z" fill="white"/>
<path d="M266.952 287.848H261.84V292.96H266.952V287.848Z" fill="white"/>
<path d="M287.4 287.848H282.288V292.96H287.4V287.848Z" fill="white"/>
<path d="M312.96 287.848H307.848V292.96H312.96V287.848Z" fill="white"/>
<path d="M123.816 292.96H118.704V298.072H123.816V292.96Z" fill="white"/>
<path d="M134.04 292.96H128.928V298.072H134.04V292.96Z" fill="white"/>
<path d="M139.152 292.96H134.04V298.072H139.152V292.96Z" fill="white"/>
<path d="M144.264 292.96H139.152V298.072H144.264V292.96Z" fill="white"/>
<path d="M154.488 292.96H149.376V298.072H154.488V292.96Z" fill="white"/>
<path d="M164.712 292.96H159.6V298.072H164.712V292.96Z" fill="white"/>
<path d="M174.936 292.96H169.824V298.072H174.936V292.96Z" fill="white"/>
<path d="M185.16 292.96H180.048V298.072H185.16V292.96Z" fill="white"/>
<path d="M190.272 292.96H185.16V298.072H190.272V292.96Z" fill="white"/>
<path d="M195.384 292.96H190.272V298.072H195.384V292.96Z" fill="white"/>
<path d="M210.72 292.96H205.608V298.072H210.72V292.96Z" fill="white"/>
<path d="M226.056 292.96H220.944V298.072H226.056V292.96Z" fill="white"/>
<path d="M236.28 292.96H231.168V298.072H236.28V292.96Z" fill="white"/>
<path d="M261.84 292.96H256.728V298.072H261.84V292.96Z" fill="white"/>
<path d="M272.064 292.96H266.952V298.072H272.064V292.96Z" fill="white"/>
<path d="M282.288 292.96H277.176V298.072H282.288V292.96Z" fill="white"/>
<path d="M297.624 292.96H292.512V298.072H297.624V292.96Z" fill="white"/>
<path d="M302.736 292.96H297.624V298.072H302.736V292.96Z" fill="white"/>
<path d="M307.848 292.96H302.736V298.072H307.848V292.96Z" fill="white"/>
<path d="M318.072 292.96H312.96V298.072H318.072V292.96Z" fill="white"/>
<path d="M323.184 292.96H318.072V298.072H323.184V292.96Z" fill="white"/>
<path d="M123.816 298.072H118.704V303.184H123.816V298.072Z" fill="white"/>
<path d="M154.488 298.072H149.376V303.184H154.488V298.072Z" fill="white"/>
<path d="M169.824 298.072H164.712V303.184H169.824V298.072Z" fill="white"/>
<path d="M185.16 298.072H180.048V303.184H185.16V298.072Z" fill="white"/>
<path d="M195.384 298.072H190.272V303.184H195.384V298.072Z" fill="white"/>
<path d="M200.496 298.072H195.384V303.184H200.496V298.072Z" fill="white"/>
<path d="M220.944 298.072H215.832V303.184H220.944V298.072Z" fill="white"/>
<path d="M241.392 298.072H236.28V303.184H241.392V298.072Z" fill="white"/>
<path d="M246.504 298.072H241.392V303.184H246.504V298.072Z" fill="white"/>
<path d="M256.728 298.072H251.616V303.184H256.728V298.072Z" fill="white"/>
<path d="M266.952 298.072H261.84V303.184H266.952V298.072Z" fill="white"/>
<path d="M277.176 298.072H272.064V303.184H277.176V298.072Z" fill="white"/>
<path d="M282.288 298.072H277.176V303.184H282.288V298.072Z" fill="white"/>
<path d="M287.4 298.072H282.288V303.184H287.4V298.072Z" fill="white"/>
<path d="M312.96 298.072H307.848V303.184H312.96V298.072Z" fill="white"/>
<path d="M328.296 298.072H323.184V303.184H328.296V298.072Z" fill="white"/>
<path d="M123.816 303.184H118.704V308.296H123.816V303.184Z" fill="white"/>
<path d="M128.928 303.184H123.816V308.296H128.928V303.184Z" fill="white"/>
<path d="M134.04 303.184H128.928V308.296H134.04V303.184Z" fill="white"/>
<path d="M139.152 303.184H134.04V308.296H139.152V303.184Z" fill="white"/>
<path d="M144.264 303.184H139.152V308.296H144.264V303.184Z" fill="white"/>
<path d="M149.376 303.184H144.264V308.296H149.376V303.184Z" fill="white"/>
<path d="M154.488 303.184H149.376V308.296H154.488V303.184Z" fill="white"/>
<path d="M185.16 303.184H180.048V308.296H185.16V303.184Z" fill="white"/>
<path d="M190.272 303.184H185.16V308.296H190.272V303.184Z" fill="white"/>
<path d="M195.384 303.184H190.272V308.296H195.384V303.184Z" fill="white"/>
<path d="M200.496 303.184H195.384V308.296H200.496V303.184Z" fill="white"/>
<path d="M215.832 303.184H210.72V308.296H215.832V303.184Z" fill="white"/>
<path d="M220.944 303.184H215.832V308.296H220.944V303.184Z" fill="white"/>
<path d="M231.168 303.184H226.056V308.296H231.168V303.184Z" fill="white"/>
<path d="M236.28 303.184H231.168V308.296H236.28V303.184Z" fill="white"/>
<path d="M246.504 303.184H241.392V308.296H246.504V303.184Z" fill="white"/>
<path d="M256.728 303.184H251.616V308.296H256.728V303.184Z" fill="white"/>
<path d="M261.84 303.184H256.728V308.296H261.84V303.184Z" fill="white"/>
<path d="M266.952 303.184H261.84V308.296H266.952V303.184Z" fill="white"/>
<path d="M272.064 303.184H266.952V308.296H272.064V303.184Z" fill="white"/>
<path d="M282.288 303.184H277.176V308.296H282.288V303.184Z" fill="white"/>
<path d="M292.512 303.184H287.4V308.296H292.512V303.184Z" fill="white"/>
<path d="M297.624 303.184H292.512V308.296H297.624V303.184Z" fill="white"/>
<path d="M302.736 303.184H297.624V308.296H302.736V303.184Z" fill="white"/>
<path d="M307.848 303.184H302.736V308.296H307.848V303.184Z" fill="white"/>
<path d="M312.96 303.184H307.848V308.296H312.96V303.184Z" fill="white"/>
<path d="M318.072 303.184H312.96V308.296H318.072V303.184Z" fill="white"/>
</g>
<rect x="5" y="5" width="437" height="437" rx="218.5" stroke="#F5F6FA" stroke-width="10"/>
<defs>
<clipPath id="clip0_5312_36346">
<rect width="213" height="213" fill="white" transform="translate(117 97)"/>
</clipPath>
</defs>
</svg>
