<svg width="447" height="447" viewBox="0 0 447 447" fill="none" xmlns="http://www.w3.org/2000/svg">
<g clip-path="url(#clip0_5312_36344)">
<path d="M223.5 0C100.128 0 0 100.128 0 223.5C0 346.872 100.128 447 223.5 447C346.872 447 447 346.872 447 223.5C447 100.128 346.872 0 223.5 0ZM327.204 151.98C323.851 187.293 309.324 273.117 301.949 312.677C298.82 329.439 292.561 335.027 286.75 335.697C273.787 336.815 263.953 327.204 251.438 318.935C231.769 305.972 220.595 297.926 201.597 285.41C179.471 270.882 193.774 262.836 206.514 249.873C209.866 246.521 267.083 194.445 268.2 189.751C268.355 189.041 268.335 188.303 268.14 187.602C267.945 186.9 267.582 186.257 267.082 185.729C265.741 184.611 263.954 185.058 262.389 185.282C260.378 185.729 229.088 206.514 168.072 247.638C159.132 253.673 151.086 256.802 143.934 256.578C135.888 256.355 120.69 252.108 109.291 248.309C95.211 243.839 84.2595 241.38 85.1535 233.557C85.6005 229.534 91.188 225.511 101.693 221.265C166.955 192.88 210.314 174.107 231.993 165.167C294.126 139.241 306.866 134.77 315.359 134.77C317.147 134.77 321.393 135.217 324.075 137.452C326.31 139.24 326.98 141.699 327.204 143.487C326.98 144.828 327.427 148.851 327.204 151.98Z" fill="black"/>
</g>
<defs>
<clipPath id="clip0_5312_36344">
<rect width="447" height="447" fill="white"/>
</clipPath>
</defs>
</svg>
