<svg width="29" height="36" viewBox="0 0 29 36" fill="none" xmlns="http://www.w3.org/2000/svg">
<path d="M1.56522 0C0.760226 0 0 0.760226 0 1.56522V34.4348C0 35.195 0.804991 36 1.56522 36H26.6087C27.3689 36 28.1739 35.195 28.1739 34.4348V10.1739L18 0H1.56522Z" fill="#D41A1A"/>
<path d="M17.6177 0L27.7916 10.1739H19.1829C18.4226 10.1739 17.6177 9.36892 17.6177 8.60869V0Z" fill="#E55A5A"/>
<path d="M10.8672 9.50339C9.9457 9.48728 9.15038 10.4038 9.34522 11.3196C9.47636 12.7188 10.3786 13.8543 11.0827 15.0097C11.1619 15.44 10.9349 15.8589 10.9197 16.286C10.4607 18.7939 9.76038 21.2882 8.68297 23.5894C7.34982 24.2032 5.84 24.8093 5.06039 26.132C4.56549 27.0498 5.26232 28.2885 6.2852 28.3853C7.23415 28.5151 7.93851 27.7018 8.45725 27.0205C8.99886 26.2876 9.3553 25.4149 9.80596 24.6273C12.5332 23.5289 15.4024 22.7613 18.3313 22.4698C19.5156 23.3174 20.7703 24.3173 22.2889 24.3778C23.1716 24.3646 23.8859 23.5078 23.7892 22.6375C23.7323 21.8451 23.0284 21.2894 22.2991 21.1407C21.1229 20.7864 19.863 20.9805 18.6666 20.9891C16.3642 19.1494 14.2388 17.0327 12.5646 14.6109C12.6889 13.1385 12.9384 11.5098 12.1717 10.1703C11.8806 9.74784 11.3871 9.45815 10.8672 9.50374L10.8672 9.50339ZM10.9111 10.8409C11.1703 10.8909 11.1876 11.277 11.2601 11.4835C11.3284 11.9044 11.321 12.3338 11.316 12.7588C11.0073 12.1818 10.6063 11.5789 10.6777 10.895C10.7591 10.8914 10.8311 10.8505 10.9111 10.8411L10.9111 10.8409ZM12.3397 16.5831C13.7119 18.2893 15.2361 19.8606 16.8995 21.2849C14.7061 21.6194 12.5271 22.1798 10.4403 22.9357C11.2407 20.844 11.85 18.6829 12.2516 16.4773C12.2808 16.5126 12.3101 16.5478 12.3393 16.5831H12.3397ZM20.8987 22.3187C21.4308 22.37 22.0447 22.3393 22.4707 22.7059C22.5107 23.0368 22.1059 23.0851 21.8903 22.9654C21.4405 22.8152 20.9955 22.6264 20.6137 22.3387C20.7088 22.3324 20.8036 22.3206 20.8991 22.3187L20.8987 22.3187ZM7.60375 25.7993C7.35077 26.2698 6.98247 26.7134 6.59841 27.0466C6.47061 27.2536 6.11986 26.871 6.28125 26.7094C6.61446 26.1878 7.19626 25.9113 7.71125 25.5997C7.67534 25.6663 7.63952 25.7328 7.60353 25.7993" fill="white"/>
</svg>
