<svg width="19" height="11" viewBox="0 0 19 11" fill="none" xmlns="http://www.w3.org/2000/svg">
<path d="M1.14698 0.446782C1.39311 0.200727 1.72689 0.0625 2.07492 0.0625C2.42294 0.0625 2.75672 0.200727 3.00285 0.446782L9.49973 6.94366L15.9966 0.446782C16.2441 0.2077 16.5757 0.0754068 16.9198 0.0783972C17.264 0.0813876 17.5931 0.219422 17.8365 0.46277C18.0798 0.706118 18.2179 1.03531 18.2209 1.37944C18.2239 1.72358 18.0916 2.05512 17.8525 2.30266L10.4277 9.72747C10.1815 9.97353 9.84776 10.1118 9.49973 10.1118C9.1517 10.1118 8.81792 9.97353 8.57179 9.72747L1.14698 2.30266C0.900922 2.05653 0.762695 1.72275 0.762695 1.37472C0.762695 1.02669 0.900922 0.692912 1.14698 0.446782V0.446782Z" fill="#fff"/>
</svg>
