<svg width="48" height="48" viewBox="0 0 48 48" fill="none" xmlns="http://www.w3.org/2000/svg">
<path d="M10 44C8.9 44 7.958 43.608 7.174 42.824C6.39 42.04 5.99867 41.0987 6 40V12C6 10.9 6.392 9.958 7.176 9.174C7.96 8.39 8.90134 7.99867 10 8H12V5.95C12 5.38333 12.192 4.91667 12.576 4.55C12.96 4.18333 13.4347 4 14 4C14.5667 4 15.042 4.192 15.426 4.576C15.81 4.96 16.0013 5.43467 16 6V8H32V5.95C32 5.38333 32.192 4.91667 32.576 4.55C32.96 4.18333 33.4347 4 34 4C34.5667 4 35.042 4.192 35.426 4.576C35.81 4.96 36.0013 5.43467 36 6V8H38C39.1 8 40.042 8.392 40.826 9.176C41.61 9.96 42.0013 10.9013 42 12V40C42 41.1 41.608 42.042 40.824 42.826C40.04 43.61 39.0987 44.0013 38 44H10ZM10 40H38V18H10V40Z" fill="#4854ED"/>
</svg>
