<svg width="48" height="48" viewBox="0 0 48 48" fill="none" xmlns="http://www.w3.org/2000/svg">
<path fill-rule="evenodd" clip-rule="evenodd" d="M42.5858 17.6866L42.588 17.6868C44.4652 17.8361 45.2266 20.1894 43.784 21.4382L34.6774 29.329L37.4069 41.0659C37.8359 42.9105 35.8419 44.367 34.2126 43.3809L23.9146 37.1524L13.6158 43.3565C11.9865 44.3426 9.99262 42.8861 10.4216 41.0414L13.1512 29.329L4.04438 21.4381C2.60678 20.1936 3.38119 17.8366 5.26496 17.6868L17.2519 16.6692L21.9419 5.60191L21.9423 5.60096C22.6704 3.86641 25.1581 3.86641 25.8862 5.60096L30.5766 16.6445L42.5858 17.6866ZM33.5827 39.1302L31.0178 28.1521L39.5307 20.7674L28.2996 19.793L23.9138 9.43125L19.5531 19.7686L8.32223 20.7429L16.8352 28.1276L14.2704 39.105L23.9141 33.2828L33.5827 39.1302Z" fill="#4854ED"/>
</svg>
