<svg width="297" height="119" viewBox="0 0 297 119" fill="none" xmlns="http://www.w3.org/2000/svg">
<path d="M282.999 117.43C283.482 118.103 284.419 118.258 285.092 117.775L296.061 109.905C296.734 109.422 296.888 108.485 296.405 107.812C295.922 107.138 294.985 106.984 294.312 107.467L284.562 114.463L277.566 104.713C277.083 104.04 276.146 103.886 275.473 104.368C274.8 104.851 274.646 105.789 275.129 106.462L282.999 117.43ZM251.389 58.9199L252.055 57.5757L251.389 58.9199ZM165.349 60.1652L164.281 59.1122L165.349 60.1652ZM167 15L166.354 16.3539L167 15ZM285.698 116.799C287.87 103.594 284.107 73.4485 252.055 57.5757L250.724 60.2641C281.267 75.3901 284.761 104.01 282.738 116.312L285.698 116.799ZM252.055 57.5757C232.177 47.7314 211.99 46.3747 195.964 48.3077C187.95 49.2744 180.954 51.066 175.528 53.0468C170.171 55.0022 166.157 57.2096 164.281 59.1122L166.418 61.2182C167.802 59.8138 171.282 57.7903 176.556 55.8649C181.761 53.9649 188.532 52.2259 196.323 51.2862C211.907 49.4065 231.48 50.7341 250.724 60.2641L252.055 57.5757ZM164.281 59.1122C158.162 65.3204 157.18 72.5785 159.455 79.5533C161.695 86.4243 167.066 92.9869 173.594 98.2248C180.134 103.473 187.983 107.512 195.374 109.24C202.714 110.957 209.95 110.46 214.84 106.097L212.842 103.858C209.021 107.269 202.997 107.942 196.057 106.319C189.168 104.708 181.719 100.899 175.471 95.885C169.21 90.8608 164.304 84.7472 162.307 78.6232C160.344 72.6031 161.165 66.5474 166.418 61.2182L164.281 59.1122ZM214.84 106.097C219.751 101.713 220.989 94.4755 219.93 86.3451C218.864 78.1568 215.432 68.6735 210.468 59.2704C200.561 40.5032 184.298 21.5878 167.646 13.6461L166.354 16.3539C182.202 23.9122 198.071 42.2114 207.815 60.6709C212.677 69.8812 215.95 79.0142 216.955 86.7324C217.968 94.5085 216.642 100.467 212.842 103.858L214.84 106.097ZM167.646 13.6461C135.095 -1.87788 92.3479 -7.11673 0.650682 14.8212L1.34871 17.7389C92.7744 -4.13411 134.712 1.26284 166.354 16.3539L167.646 13.6461Z" fill="#4854ED"/>
</svg>
