<svg width="422" height="121" viewBox="0 0 422 121" fill="none" xmlns="http://www.w3.org/2000/svg">
<path d="M56.6044 76.5405L57.0435 75.1062L56.6044 76.5405ZM166.482 56.8649L165.257 55.9989L166.482 56.8649ZM171.465 113.738L171.1 115.193L171.465 113.738ZM421.37 12.2171C421.473 11.3951 420.891 10.6452 420.069 10.5422L406.673 8.86288C405.851 8.75984 405.102 9.34266 404.999 10.1646C404.895 10.9866 405.478 11.7365 406.3 11.8396L418.207 13.3323L416.714 25.2391C416.611 26.0611 417.194 26.811 418.016 26.914C418.838 27.0171 419.588 26.4342 419.691 25.6123L421.37 12.2171ZM0.968942 9.65924C0.963599 26.8838 12.0399 64.4649 56.1653 77.9747L57.0435 75.1062C14.5272 62.089 3.96388 25.9698 3.96894 9.66017L0.968942 9.65924ZM56.1653 77.9747C83.5795 86.3682 109.615 83.873 129.66 78.0491C139.684 75.1368 148.231 71.3863 154.73 67.7276C161.165 64.1052 165.766 60.4757 167.707 57.7309L165.257 55.9989C163.721 58.1724 159.617 61.5339 153.259 65.1134C146.965 68.6565 138.631 72.3187 128.823 75.1682C109.206 80.8678 83.7804 83.2922 57.0435 75.1062L56.1653 77.9747ZM167.707 57.7309C174.13 48.6476 173.866 39.3304 169.558 31.0125C165.299 22.7915 157.124 15.5742 147.712 10.2658C138.285 4.949 127.453 1.45268 117.705 0.798595C108.009 0.148018 99.0328 2.30109 93.8242 8.74903L96.1579 10.6342C100.467 5.29992 108.219 3.1688 117.504 3.79186C126.737 4.41141 137.138 7.74657 146.238 12.8789C155.352 18.0196 162.997 24.8691 166.894 32.3923C170.741 39.8186 170.968 47.9232 165.257 55.9989L167.707 57.7309ZM93.8242 8.74903C88.6622 15.1392 87.7483 24.2818 89.8557 34.2964C91.97 44.3434 97.1689 55.5271 104.626 66.3299C119.528 87.9181 143.684 108.317 171.1 115.193L171.829 112.283C145.301 105.629 121.702 85.7871 107.095 64.6257C99.7971 54.0536 94.8025 43.2354 92.7914 33.6786C90.7735 24.0893 91.8022 16.0262 96.1579 10.6342L93.8242 8.74903ZM171.1 115.193C223.231 128.268 267.036 117.246 307.118 95.7101C347.106 74.2244 383.539 42.1763 420.803 13.2149L418.962 10.8462C381.487 39.9716 345.392 71.7398 305.698 93.0674C266.097 114.345 223.062 125.133 171.829 112.283L171.1 115.193Z" fill="#4854ED"/>
</svg>
