<svg width="48" height="48" viewBox="0 0 48 48" fill="none" xmlns="http://www.w3.org/2000/svg">
<path d="M18.302 30.9998C18.302 31.9386 19.0631 32.6998 20.002 32.6998C20.9408 32.6998 21.702 31.9386 21.702 30.9998H18.302ZM20.002 16.9998V15.2998C19.0631 15.2998 18.302 16.0609 18.302 16.9998H20.002ZM21.702 30.9998V25.3998H18.302V30.9998H21.702ZM20.002 27.0998H25.716V23.6998H20.002V27.0998ZM25.716 27.0998C26.3671 27.0998 27.9057 27.1341 29.256 26.3403C30.8022 25.4313 31.702 23.7292 31.702 21.1998H28.302C28.302 22.8703 27.7727 23.2682 27.5329 23.4093C27.0972 23.6654 26.4928 23.6998 25.716 23.6998V27.0998ZM31.702 21.1998C31.702 18.6703 30.8022 16.9683 29.256 16.0593C27.9057 15.2654 26.3671 15.2998 25.716 15.2998V18.6998C26.4928 18.6998 27.0972 18.7341 27.5329 18.9903C27.7727 19.1313 28.302 19.5292 28.302 21.1998H31.702ZM25.716 15.2998H20.002V18.6998H25.716V15.2998ZM18.302 16.9998V25.3998H21.702V16.9998H18.302ZM42.3019 23.9998C42.3019 34.1066 34.1088 42.2998 24.002 42.2998V45.6998C35.9865 45.6998 45.702 35.9843 45.702 23.9998H42.3019ZM24.002 42.2998C13.8951 42.2998 5.70195 34.1066 5.70195 23.9998H2.30195C2.30195 35.9843 12.0174 45.6998 24.002 45.6998V42.2998ZM5.70195 23.9998C5.70195 13.8929 13.8951 5.69976 24.002 5.69976V2.29976C12.0174 2.29976 2.30195 12.0152 2.30195 23.9998H5.70195ZM24.002 5.69976C34.1088 5.69976 42.3019 13.8929 42.3019 23.9998H45.702C45.702 12.0152 35.9865 2.29976 24.002 2.29976V5.69976Z" fill="#4854ED"/>
</svg>
