<svg width="24" height="25" viewBox="0 0 24 25" fill="none" xmlns="http://www.w3.org/2000/svg">
<path d="M5 22.5C4.45 22.5 3.979 22.304 3.587 21.912C3.195 21.52 2.99934 21.0493 3 20.5V6.5C3 5.95 3.196 5.479 3.588 5.087C3.98 4.695 4.45067 4.49933 5 4.5H6V3.475C6 3.19167 6.096 2.95833 6.288 2.775C6.48 2.59167 6.71734 2.5 7 2.5C7.28334 2.5 7.521 2.596 7.713 2.788C7.905 2.98 8.00067 3.21733 8 3.5V4.5H16V3.475C16 3.19167 16.096 2.95833 16.288 2.775C16.48 2.59167 16.7173 2.5 17 2.5C17.2833 2.5 17.521 2.596 17.713 2.788C17.905 2.98 18.0007 3.21733 18 3.5V4.5H19C19.55 4.5 20.021 4.696 20.413 5.088C20.805 5.48 21.0007 5.95067 21 6.5V20.5C21 21.05 20.804 21.521 20.412 21.913C20.02 22.305 19.5493 22.5007 19 22.5H5ZM5 20.5H19V10.5H5V20.5Z" fill="#323232"/>
</svg>
