
<svg width="147" height="34" viewBox="0 0 147 34" fill="none" xmlns="http://www.w3.org/2000/svg">
    <path fill-rule="evenodd" clip-rule="evenodd" d="M13.078 8.34159C13.7436 8.61479 14.374 8.96179 14.9575 9.37491V0H18.9168V17.4359H18.9066C18.8557 18.5177 18.616 19.5838 18.1968 20.5864C17.7215 21.7235 17.0248 22.7566 16.1465 23.6269C15.2682 24.4971 14.2255 25.1874 13.078 25.6584C11.9304 26.1294 10.7005 26.3718 9.45841 26.3718C8.21631 26.3718 6.98638 26.1294 5.83883 25.6584C4.69128 25.1874 3.6486 24.4971 2.7703 23.6269C1.89201 22.7566 1.19531 21.7235 0.719978 20.5864C0.244649 19.4494 0 18.2307 0 17C0 15.7693 0.244649 14.5506 0.719979 13.4136C1.19531 12.2765 1.89201 11.2434 2.7703 10.3731C3.6486 9.50289 4.69129 8.81257 5.83883 8.34159C6.98638 7.87061 8.21631 7.62821 9.45841 7.62821C10.7005 7.62821 11.9304 7.87061 13.078 8.34159ZM14.9575 17C14.9575 16.2845 14.8152 15.5759 14.5389 14.9149C14.2625 14.2538 13.8575 13.6531 13.3468 13.1472C12.8362 12.6412 12.23 12.2399 11.5628 11.966C10.8956 11.6922 10.1806 11.5513 9.45841 11.5513C8.73626 11.5513 8.02118 11.6922 7.354 11.966C6.68683 12.2399 6.08061 12.6412 5.56998 13.1472C5.05934 13.6531 4.65428 14.2538 4.37793 14.9149C4.10157 15.5759 3.95933 16.2845 3.95933 17C3.95933 17.7155 4.10157 18.4241 4.37793 19.0851C4.65428 19.7462 5.05934 20.3469 5.56997 20.8528C6.08061 21.3588 6.68682 21.7601 7.354 22.034C8.02118 22.3078 8.73626 22.4487 9.45841 22.4487C10.1806 22.4487 10.8956 22.3078 11.5628 22.034C12.23 21.7601 12.8362 21.3588 13.3468 20.8528C13.8575 20.3469 14.2625 19.7462 14.5389 19.0851C14.8152 18.4241 14.9575 17.7155 14.9575 17Z" fill="url(#paint0_linear_1885_10788)"/>
    <path fill-rule="evenodd" clip-rule="evenodd" d="M36.6337 8.34159C37.7812 7.87061 39.0111 7.62821 40.2532 7.62821C41.4953 7.62821 42.7253 7.87061 43.8728 8.34159C45.0204 8.81257 46.063 9.50289 46.9413 10.3731C47.8196 11.2434 48.5163 12.2765 48.9917 13.4136C49.467 14.5506 49.7116 15.7693 49.7116 17C49.7116 17.1455 49.7082 17.2908 49.7014 17.4359H49.7116V24.6282C49.7116 25.8589 49.467 27.0776 48.9917 28.2146C48.5163 29.3517 47.8196 30.3848 46.9413 31.2551C46.063 32.1253 45.0204 32.8156 43.8728 33.2866C42.7253 33.7576 41.4953 34 40.2532 34H34.7542V30.0769H40.2532C40.9754 30.0769 41.6905 29.936 42.3576 29.6622C43.0248 29.3883 43.631 28.987 44.1417 28.481C44.6523 27.9751 45.0574 27.3744 45.3337 26.7133C45.6101 26.0523 45.7523 25.3437 45.7523 24.6282V24.6251C45.1688 25.0382 44.5385 25.3852 43.8728 25.6584C42.7253 26.1294 41.4953 26.3718 40.2532 26.3718C39.0111 26.3718 37.7812 26.1294 36.6337 25.6584C35.4861 25.1874 34.4434 24.4971 33.5651 23.6269C32.6868 22.7566 31.9901 21.7235 31.5148 20.5864C31.0395 19.4494 30.7948 18.2307 30.7948 17C30.7948 15.7693 31.0395 14.5506 31.5148 13.4136C31.9901 12.2765 32.6868 11.2434 33.5651 10.3731C34.4434 9.50289 35.4861 8.81257 36.6337 8.34159ZM40.2532 11.5513C39.5311 11.5513 38.816 11.6922 38.1488 11.966C37.4816 12.2399 36.8754 12.6412 36.3648 13.1472C35.8542 13.6531 35.4491 14.2538 35.1727 14.9149C34.8964 15.5759 34.7542 16.2845 34.7542 17C34.7542 17.7155 34.8964 18.4241 35.1727 19.0851C35.4491 19.7462 35.8542 20.3469 36.3648 20.8528C36.8754 21.3588 37.4816 21.7601 38.1488 22.034C38.816 22.3078 39.5311 22.4487 40.2532 22.4487C40.9754 22.4487 41.6905 22.3078 42.3576 22.034C43.0248 21.7601 43.631 21.3588 44.1417 20.8528C44.6523 20.3469 45.0574 19.7462 45.3337 19.0851C45.6101 18.4241 45.7523 17.7155 45.7523 17C45.7523 16.2845 45.6101 15.5759 45.3337 14.9149C45.0574 14.2538 44.6523 13.6531 44.1417 13.1472C43.631 12.6412 43.0248 12.2399 42.3576 11.966C41.6905 11.6922 40.9754 11.5513 40.2532 11.5513Z" fill="url(#paint1_linear_1885_10788)"/>
    <path fill-rule="evenodd" clip-rule="evenodd" d="M86.8854 7.62821C85.6433 7.62821 84.4134 7.87061 83.2658 8.34159C82.1183 8.81257 81.0756 9.50289 80.1973 10.3731C79.319 11.2434 78.6223 12.2765 78.1469 13.4136C77.6716 14.5506 77.427 15.7693 77.427 17C77.427 18.2307 77.6716 19.4494 78.1469 20.5864C78.6223 21.7235 79.319 22.7566 80.1973 23.6269C81.0756 24.4971 82.1183 25.1874 83.2658 25.6584C84.4133 26.1294 85.6433 26.3718 86.8854 26.3718C88.1275 26.3718 89.3574 26.1294 90.505 25.6584C91.6525 25.1874 92.6952 24.4971 93.5735 23.6269C94.4518 22.7566 95.1485 21.7235 95.6238 20.5864C96.0991 19.4494 96.3438 18.2307 96.3438 17C96.3438 15.7693 96.0991 14.5506 95.6238 13.4136C95.1485 12.2765 94.4518 11.2434 93.5735 10.3731C92.6952 9.50289 91.6525 8.81257 90.505 8.34159C89.3574 7.87061 88.1275 7.62821 86.8854 7.62821ZM84.781 11.966C85.4482 11.6922 86.1632 11.5513 86.8854 11.5513C87.6075 11.5513 88.3226 11.6922 88.9898 11.966C89.657 12.2399 90.2632 12.6412 90.7738 13.1472C91.2845 13.6531 91.6895 14.2538 91.9659 14.9149C92.2422 15.5759 92.3845 16.2845 92.3845 17C92.3845 17.7155 92.2422 18.4241 91.9659 19.0851C91.6895 19.7462 91.2845 20.3469 90.7738 20.8528C90.2632 21.3588 89.657 21.7601 88.9898 22.034C88.3226 22.3078 87.6075 22.4487 86.8854 22.4487C86.1632 22.4487 85.4482 22.3078 84.781 22.034C84.1138 21.7601 83.5076 21.3588 82.9969 20.8528C82.4863 20.3469 82.0812 19.7462 81.8049 19.0851C81.5285 18.4241 81.3863 17.7155 81.3863 17C81.3863 16.2845 81.5285 15.5759 81.8049 14.9149C82.0813 14.2538 82.4863 13.6531 82.9969 13.1472C83.5076 12.6412 84.1138 12.2399 84.781 11.966Z" fill="url(#paint2_linear_1885_10788)"/>
    <path d="M140.556 11.5513C139.591 11.5513 138.643 11.803 137.807 12.2813C136.971 12.7595 136.277 13.4473 135.794 14.2756C135.311 15.104 135.057 16.0436 135.057 17C135.057 17.9565 135.311 18.896 135.794 19.7244C136.277 20.5527 136.971 21.2405 137.807 21.7187C138.643 22.197 139.591 22.4487 140.556 22.4487C141.522 22.4487 142.47 22.197 143.306 21.7187L145.02 20.738L147 24.1354L145.286 25.1162C143.848 25.9388 142.217 26.3718 140.556 26.3718C138.896 26.3718 137.265 25.9388 135.827 25.1162C134.389 24.2937 133.195 23.1106 132.365 21.6859C131.535 20.2612 131.098 18.6451 131.098 17C131.098 15.3549 131.535 13.7388 132.365 12.3141C133.195 10.8894 134.389 9.70634 135.827 8.88379C137.265 8.06124 138.896 7.62821 140.556 7.62821C142.217 7.62821 143.848 8.06124 145.286 8.88379L147 9.86456L145.02 13.262L143.306 12.2813C142.47 11.803 141.522 11.5513 140.556 11.5513Z" fill="url(#paint3_linear_1885_10788)"/>
    <path d="M107.657 11.966C108.324 11.6922 109.039 11.5513 109.762 11.5513C110.484 11.5513 111.199 11.6922 111.866 11.966C112.533 12.2399 113.139 12.6412 113.65 13.1472C114.161 13.6531 114.566 14.2538 114.842 14.9149C115.118 15.5759 115.261 16.2845 115.261 17V26.3718H119.22V17C119.22 15.7693 118.975 14.5506 118.5 13.4136C118.025 12.2765 117.328 11.2434 116.45 10.3731C115.571 9.50289 114.529 8.81257 113.381 8.34159C112.234 7.87061 111.004 7.62821 109.762 7.62821C108.519 7.62821 107.289 7.87061 106.142 8.34159C104.994 8.81257 103.952 9.50289 103.073 10.3731C102.195 11.2434 101.498 12.2765 101.023 13.4136C100.548 14.5506 100.303 15.7693 100.303 17V26.3718H104.262V17C104.262 16.2845 104.405 15.5759 104.681 14.9149C104.957 14.2538 105.362 13.6531 105.873 13.1472C106.384 12.6412 106.99 12.2399 107.657 11.966Z" fill="url(#paint4_linear_1885_10788)"/>
    <path d="M71.048 22.4579C69.5896 22.4579 68.1909 21.8838 67.1596 20.862C66.1283 19.8401 65.549 18.4542 65.549 17.0092V11.5513H73.4676V7.62821L65.549 7.6282V0H61.5896V17.0092C61.5896 19.4947 62.5861 21.8785 64.3599 23.636C66.1337 25.3936 68.5395 26.3809 71.048 26.3809H73.0277V26.3718H73.4676V22.4487H73.0277V22.4579H71.048Z" fill="url(#paint5_linear_1885_10788)"/>
    <path d="M22.8762 26.3718V7.84615H26.8355V26.3718H22.8762Z" fill="url(#paint6_linear_1885_10788)"/>
    <path d="M53.671 26.3718V7.84615H57.6303V26.3718H53.671Z" fill="url(#paint7_linear_1885_10788)"/>
    <path d="M123.179 26.3718V7.84615H127.139V26.3718H123.179Z" fill="url(#paint8_linear_1885_10788)"/>
    <defs>
        <linearGradient id="paint0_linear_1885_10788" x1="147" y1="17" x2="0" y2="17" gradientUnits="userSpaceOnUse">
            <stop offset="0.0707801" stop-color="#5CF39B"/>
            <stop offset="1" stop-color="#2F80ED"/>
        </linearGradient>
        <linearGradient id="paint1_linear_1885_10788" x1="147" y1="17" x2="0" y2="17" gradientUnits="userSpaceOnUse">
            <stop offset="0.0707801" stop-color="#5CF39B"/>
            <stop offset="1" stop-color="#2F80ED"/>
        </linearGradient>
        <linearGradient id="paint2_linear_1885_10788" x1="147" y1="17" x2="0" y2="17" gradientUnits="userSpaceOnUse">
            <stop offset="0.0707801" stop-color="#5CF39B"/>
            <stop offset="1" stop-color="#2F80ED"/>
        </linearGradient>
        <linearGradient id="paint3_linear_1885_10788" x1="147" y1="17" x2="0" y2="17" gradientUnits="userSpaceOnUse">
            <stop offset="0.0707801" stop-color="#5CF39B"/>
            <stop offset="1" stop-color="#2F80ED"/>
        </linearGradient>
        <linearGradient id="paint4_linear_1885_10788" x1="147" y1="17" x2="0" y2="17" gradientUnits="userSpaceOnUse">
            <stop offset="0.0707801" stop-color="#5CF39B"/>
            <stop offset="1" stop-color="#2F80ED"/>
        </linearGradient>
        <linearGradient id="paint5_linear_1885_10788" x1="147" y1="17" x2="0" y2="17" gradientUnits="userSpaceOnUse">
            <stop offset="0.0707801" stop-color="#5CF39B"/>
            <stop offset="1" stop-color="#2F80ED"/>
        </linearGradient>
        <linearGradient id="paint6_linear_1885_10788" x1="147" y1="17" x2="0" y2="17" gradientUnits="userSpaceOnUse">
            <stop offset="0.0707801" stop-color="#5CF39B"/>
            <stop offset="1" stop-color="#2F80ED"/>
        </linearGradient>
        <linearGradient id="paint7_linear_1885_10788" x1="147" y1="17" x2="0" y2="17" gradientUnits="userSpaceOnUse">
            <stop offset="0.0707801" stop-color="#5CF39B"/>
            <stop offset="1" stop-color="#2F80ED"/>
        </linearGradient>
        <linearGradient id="paint8_linear_1885_10788" x1="147" y1="17" x2="0" y2="17" gradientUnits="userSpaceOnUse">
            <stop offset="0.0707801" stop-color="#5CF39B"/>
            <stop offset="1" stop-color="#2F80ED"/>
        </linearGradient>
    </defs>
</svg>
